<svg width="24" height="24" viewBox="0 0 24 24" fill="none" xmlns="http://www.w3.org/2000/svg">
<g clip-path="url(#clip0_71_96230)">
<path d="M5.34002 2.12457e-05C2.38727 -0.00822875 -0.00822875 2.38727 2.12457e-05 5.34002V18.66C-0.00822875 21.6128 2.38727 24.0083 5.34002 24H18.66C21.6128 24.0083 24.0083 21.6128 24 18.66V5.34002C24.0083 2.38727 21.6128 -0.00822875 18.66 2.12457e-05H5.34002ZM11.8628 2.56577C14.199 2.56577 16.3118 3.46877 17.922 5.15552C19.1453 6.42527 19.8323 7.77227 20.184 9.54677C20.3048 10.137 20.3048 11.7458 20.1908 12.4095C19.8158 14.5223 18.66 16.4138 16.953 17.7068C16.344 18.168 14.8553 18.969 14.6168 18.969C14.5268 18.969 14.52 18.879 14.559 18.5078C14.6333 17.9138 14.703 17.793 15.039 17.652C15.5738 17.43 16.488 16.7768 17.0468 16.2188C18.0225 15.2415 18.7185 14.0198 19.0545 12.6795C19.2653 11.8545 19.2375 10.0223 19.0073 9.17552C18.2805 6.47927 16.077 4.38677 13.3823 3.82352C12.6015 3.66377 11.175 3.66377 10.3823 3.82352C7.65527 4.38677 5.39702 6.58577 4.71002 9.35177C4.52627 10.1048 4.52627 11.9378 4.71002 12.6878C5.16677 14.52 6.35102 16.1985 7.90127 17.199C8.20652 17.4023 8.57327 17.6093 8.72627 17.6723C9.06152 17.8163 9.13652 17.9385 9.19802 18.5273C9.23702 18.891 9.22877 18.9923 9.14402 18.9923C9.08927 18.9923 8.67902 18.816 8.24477 18.609L8.20577 18.5783C5.73302 17.3633 4.15052 15.3053 3.57302 12.5663C3.43277 11.859 3.40502 10.176 3.54602 9.52727C3.90527 7.78502 4.59302 6.42602 5.73677 5.22302C7.38602 3.48377 9.50702 2.56577 11.8658 2.56577H11.8628ZM12 5.37902C12.4058 5.38277 12.801 5.41802 13.1048 5.48402C15.891 6.10502 17.8628 8.89127 17.4795 11.6558C17.3273 12.7725 16.9448 13.6875 16.2653 14.5388C15.9293 14.9685 15.1125 15.6878 14.9685 15.6878C14.9445 15.6878 14.9213 15.414 14.9213 15.0855V14.4795L15.3353 13.9838C16.905 12.105 16.7925 9.48002 15.081 7.76177C14.4173 7.08977 13.647 6.69452 12.6548 6.51602C12.015 6.39527 11.8815 6.39527 11.2095 6.50777C10.1865 6.67202 9.39677 7.06577 8.69327 7.76177C6.97502 9.46502 6.86102 12.105 8.43227 13.9838L8.84627 14.4795V15.0893C8.84627 15.4253 8.81852 15.6945 8.78327 15.6945C8.75627 15.6945 8.52152 15.5348 8.27102 15.3353L8.23577 15.3233C7.40402 14.6595 6.66977 13.4835 6.36452 12.327C6.18152 11.628 6.18152 10.3043 6.37277 9.60827C6.87677 7.72952 8.26352 6.27227 10.182 5.58902C10.5923 5.44427 11.3138 5.36627 11.994 5.37827L12 5.37902ZM11.8673 8.36702C12.18 8.36702 12.4883 8.43002 12.7155 8.54702C13.1993 8.80127 13.6028 9.28877 13.7543 9.80477C14.2193 11.3828 12.5475 12.7658 11.031 12.0585H11.0198C10.305 11.7263 9.92177 11.1015 9.91352 10.2885C9.91352 9.55427 10.3193 8.91752 11.0265 8.54252C11.2493 8.42552 11.5583 8.36627 11.8703 8.36627L11.8673 8.36702ZM11.859 13.098C12.8483 13.0943 13.5623 13.4453 13.8278 14.0663C14.0265 14.5313 13.953 15.996 13.6088 18.3675C13.3785 20.0235 13.2495 20.4413 12.93 20.7233C12.4883 21.1133 11.8673 21.2235 11.2733 21.012H11.2703C10.5555 20.754 10.4025 20.406 10.1055 18.3668C9.76652 15.996 9.69152 14.5305 9.89177 14.0655C10.1528 13.4483 10.8638 13.1018 11.8598 13.0973L11.859 13.098Z" fill="#000000"/>
</g>
</svg>
