<svg width="24" height="24" viewBox="0 0 24 24" fill="none" xmlns="http://www.w3.org/2000/svg">
<path fill-rule="evenodd" clip-rule="evenodd" d="M12 2C10.3431 2 9 3.34315 9 5V5.52779C7.27477 6.35238 6 8.0711 6 10V15.1056L4.55279 17.2764C4.21431 17.7362 4.35823 18.3751 4.82918 18.6929C5.03179 18.8261 5.27046 18.9 5.51716 18.9H9.05493C9.28759 20.0661 10.3361 21 12 21C13.6639 21 14.7124 20.0661 14.9451 18.9H18.4828C19.0351 18.9 19.4828 18.4523 19.4828 17.9C19.4828 17.6533 19.409 17.4146 19.2758 17.212L18 15.3944V10C18 8.0711 16.7252 6.35238 15 5.52779V5C15 3.34315 13.6569 2 12 2ZM11 5.07089C11.3149 5.02417 11.6535 5 12 5C12.3465 5 12.6851 5.02417 13 5.07089V5C13 4.44772 12.5523 4 12 4C11.4477 4 11 4.44772 11 5V5.07089ZM12 7C9.79086 7 8 8.79086 8 11V15.7639L6.86852 17.4H17.1315L16 15.7639V11C16 8.79086 14.2091 7 12 7ZM13.8293 18.9C13.4175 19.5825 12.7583 20 12 20C11.2417 20 10.5825 19.5825 10.1707 18.9H13.8293Z" fill="#000000"/>
</svg>
