<svg width="24" height="24" viewBox="0 0 24 24" fill="none" xmlns="http://www.w3.org/2000/svg">
<g clip-path="url(#clip0_71_96225)">
<path d="M12 24C5.391 24.0203 0.01575 18.672 0 12.0623V12C0 5.352 5.352 0 12 0C18.648 0 24 5.352 24 12C24 18.648 18.648 24 12 24ZM12 19.2502L12.8978 18.3525L12 14.8988L11.1023 18.3525L12 19.2502ZM10.8517 19.1993L10.398 20.898L11.4488 19.848L10.8517 19.1993ZM13.1483 19.1993L12.5513 19.8015L13.602 20.8522L13.1483 19.1993ZM14.0002 22.3013L12 20.301L9.99975 22.3013C10.6477 22.4025 11.301 22.5 12 22.5C12.699 22.5 13.3523 22.449 14.0002 22.3013ZM12 1.5C6.19875 1.5 1.5 6.19875 1.5 12C1.49175 16.4692 4.32375 20.445 8.55075 21.8978L10.8007 13.551C10.2885 13.176 9.9915 12.582 9.99975 11.949C9.99975 10.848 10.8975 9.94875 12 9.94875C13.1025 9.94875 14.0002 10.848 14.0002 11.949C14.0002 12.5977 13.6995 13.1483 13.1993 13.551L15.4493 21.8978C19.6763 20.445 22.5082 16.4685 22.5 12C22.5 6.19875 17.8013 1.5 12 1.5ZM18.852 17.199C18.594 17.52 18.1373 17.586 17.8013 17.352C17.4885 17.145 17.4023 16.7227 17.6055 16.41C17.6213 16.3867 17.6378 16.3673 17.6528 16.3478C17.6528 16.3478 19.0005 14.5507 19.0005 12C19.0005 9.44925 17.6528 7.64775 17.6528 7.64775C17.4105 7.359 17.454 6.93 17.7428 6.69075C17.763 6.67575 17.7817 6.66 17.802 6.648C18.138 6.414 18.5992 6.48 18.8527 6.79725C18.9495 6.8985 20.5005 8.949 20.5005 11.9963C20.5005 15.0472 18.9487 17.1022 18.852 17.199ZM15.1987 15.2498C14.898 14.949 14.949 14.3977 15.2498 14.1015C15.2498 14.1015 15.9998 13.3005 15.9998 11.9992C15.9998 10.698 15.2498 9.948 15.2498 9.897C14.949 9.597 14.949 9.09675 15.1987 8.74875C15.4297 8.4435 15.8625 8.394 16.1677 8.6235C16.1947 8.64675 16.2225 8.67075 16.2495 8.69775C16.3005 8.74875 17.4998 9.999 17.4998 11.9985C17.4998 13.998 16.3005 15.2483 16.2495 15.2992C15.9488 15.6 15.4995 15.549 15.1987 15.2482V15.2498ZM8.80125 15.2498C8.5005 15.5505 8.05125 15.6015 7.7505 15.3007C7.6995 15.1987 6.50025 13.9995 6.50025 12C6.50025 10.0005 7.6995 8.80125 7.7505 8.69925C8.05125 8.3985 8.5515 8.3985 8.80125 8.75025C9.102 9.051 9.051 9.60225 8.75025 9.8985C8.75025 9.9495 8.00025 10.6995 8.00025 12.0007C8.00025 13.302 8.75025 14.103 8.75025 14.103C9.051 14.3993 9.102 14.8987 8.80125 15.2512V15.2498ZM6.19875 17.352C5.86275 17.586 5.406 17.52 5.148 17.199C5.05125 17.1022 3.50025 15.051 3.50025 12C3.50025 8.949 5.05125 6.89775 5.148 6.801C5.406 6.48 5.86275 6.414 6.19875 6.648C6.5115 6.855 6.59775 7.27725 6.3945 7.59C6.37875 7.60875 6.36225 7.63275 6.35175 7.64775C6.35175 7.64775 4.9995 9.4485 4.9995 12C4.9995 14.5515 6.35175 16.3522 6.35175 16.3522C6.6015 16.6485 6.4995 17.1022 6.19875 17.352Z" fill="#000000"/>
</g>
</svg>
