<svg
  width="24"
  height="24"
  viewBox="0 0 24 24"
  fill="none"
  xmlns="http://www.w3.org/2000/svg"
>
  <path
    d="M9 10L9 15"
    stroke="#000000"
    stroke-width="1.5"
    stroke-linecap="square"
  />
  <path
    d="M13.75 10H13.25C12.5596 10 12 10.5596 12 11.25V13.75C12 14.4404 12.5596 15 13.25 15H13.75C14.4404 15 15 14.4404 15 13.75V11.25C15 10.5596 14.4404 10 13.75 10Z"
    stroke="#000000"
    stroke-width="1.5"
  />
  <path
    fill="#000000"
    fill-rule="evenodd"
    clip-rule="evenodd"
    d="M20.75 12C20.75 7.16751 16.8325 3.25 12 3.25C9.7471 3.25 7.69366 4.10071 6.14216 5.5H8.5V7H3.75V2.25H5.25V4.28624C7.05264 2.70773 9.41484 1.75 12 1.75C17.6609 1.75 22.25 6.33908 22.25 12C22.25 17.6609 17.6609 22.25 12 22.25C6.33908 22.25 1.75 17.6609 1.75 12C1.75 10.7394 1.9779 9.5305 2.39527 8.41329L3.78947 8.96769C3.44073 9.91159 3.25 10.9328 3.25 12C3.25 16.8325 7.16751 20.75 12 20.75C16.8325 20.75 20.75 16.8325 20.75 12Z"
  />
</svg>