<svg clip-rule="evenodd" fill-rule="evenodd" height="28" image-rendering="optimizeQuality" shape-rendering="geometricPrecision" text-rendering="geometricPrecision" viewBox="0 0 640 640" width="28" xmlns="http://www.w3.org/2000/svg"><path d="m633.468 192.038s-6.248-44.115-25.477-63.485c-24.366-25.477-51.65-25.642-64.123-27.118-89.493-6.52-223.904-6.52-223.904-6.52h-.236s-134.352 0-223.893 6.52c-12.52 1.523-39.768 1.63-64.123 27.118-19.24 19.37-25.358 63.485-25.358 63.485s-6.366 51.768-6.366 103.643v48.509c0 51.768 6.366 103.643 6.366 103.643s6.248 44.114 25.358 63.52c24.355 25.477 56.363 24.65 70.655 27.367 51.237 4.89 217.644 6.366 217.644 6.366s134.529-.237 224.022-6.638c12.52-1.477 39.756-1.63 64.123-27.119 19.24-19.37 25.476-63.532 25.476-63.532s6.368-51.767 6.368-103.643v-48.508c-.13-51.769-6.497-103.643-6.497-103.643zm-379.8 211.007v-179.872l172.892 90.237z"/></svg>