<?xml version="1.0" standalone="no"?>
<!DOCTYPE svg PUBLIC "-//W3C//DTD SVG 20010904//EN"
 "http://www.w3.org/TR/2001/REC-SVG-20010904/DTD/svg10.dtd">
<svg version="1.0" xmlns="http://www.w3.org/2000/svg"
 width="408.000000pt" height="408.000000pt" viewBox="0 0 408.000000 408.000000"
 preserveAspectRatio="xMidYMid meet">
<metadata>
Created by potrace 1.14, written by Peter Selinger 2001-2017
</metadata>
<g transform="translate(0.000000,408.000000) scale(0.100000,-0.100000)"
fill="#000000" stroke="none">
<path d="M552 4069 c-248 -32 -458 -218 -529 -469 -17 -62 -18 -140 -18 -1560
0 -1401 1 -1499 18 -1559 61 -221 234 -395 457 -458 62 -17 140 -18 1560 -18
1401 0 1499 1 1559 18 221 61 395 234 458 457 17 62 18 140 18 1560 0 1401 -1
1499 -18 1559 -60 219 -230 391 -452 457 -56 17 -146 18 -1525 20 -806 1
-1493 -2 -1528 -7z m1045 -1047 c72 -30 1283 -746 1319 -780 59 -57 79 -106
79 -197 0 -90 -20 -139 -78 -197 -38 -37 -1291 -775 -1340 -789 -132 -38 -278
33 -336 161 -20 44 -21 62 -21 825 l0 780 24 50 c62 135 220 201 353 147z"/>
<path d="M2255 2329 c-83 -19 -174 -53 -287 -106 l-117 -56 -40 35 c-47 40
-98 58 -167 58 -68 0 -97 -9 -91 -29 3 -14 372 -650 383 -660 8 -8 56 44 77
84 18 33 22 56 22 130 l-1 91 76 52 c257 174 395 364 294 402 -31 12 -95 11
-149 -1z"/>
<path d="M1488 1863 c-100 -104 -120 -158 -73 -189 20 -13 39 -15 83 -11 60 6
188 42 196 55 7 11 -114 212 -128 212 -7 0 -42 -30 -78 -67z"/>
</g>
</svg>
