<?xml version="1.0" standalone="no"?>
<!DOCTYPE svg PUBLIC "-//W3C//DTD SVG 20010904//EN"
 "http://www.w3.org/TR/2001/REC-SVG-20010904/DTD/svg10.dtd">
<svg version="1.0" xmlns="http://www.w3.org/2000/svg"
 width="844.000000pt" height="844.000000pt" viewBox="0 0 844.000000 844.000000"
 preserveAspectRatio="xMidYMid meet">
<metadata>
Created by potrace 1.14, written by Peter Selinger 2001-2017
</metadata>
<g transform="translate(0.000000,844.000000) scale(0.100000,-0.100000)"
fill="#000000" stroke="none">
<path d="M5207 8354 c-2 -2 -28 -6 -58 -8 -30 -3 -54 -5 -54 -6 0 -2 -9 -4
-20 -5 -79 -10 -361 -79 -430 -105 -15 -6 -31 -8 -36 -4 -5 3 -9 1 -9 -4 0 -7
-39 -20 -115 -38 -5 -2 -62 -21 -125 -44 -63 -23 -128 -46 -145 -51 -16 -5
-39 -13 -50 -18 -11 -4 -76 -30 -145 -56 -69 -27 -195 -77 -280 -112 -159 -66
-167 -70 -283 -122 -38 -17 -70 -31 -72 -31 -4 0 -111 -49 -243 -111 -46 -21
-87 -39 -93 -39 -5 0 -9 -4 -9 -10 0 -5 -6 -10 -13 -10 -7 0 -55 -21 -107 -47
-52 -26 -97 -48 -100 -48 -25 -7 -508 -257 -685 -355 -27 -15 -70 -39 -95 -52
-25 -14 -121 -69 -215 -123 -93 -54 -180 -103 -192 -109 -13 -6 -23 -14 -23
-18 0 -5 -4 -8 -9 -8 -9 0 -161 -90 -221 -130 -14 -9 -81 -52 -150 -96 -69
-43 -129 -82 -135 -86 -5 -5 -35 -25 -65 -45 -148 -98 -348 -242 -441 -317
-14 -12 -41 -33 -60 -48 -19 -14 -45 -36 -59 -47 -14 -12 -45 -38 -70 -58 -86
-71 -256 -248 -303 -315 -67 -93 -97 -172 -93 -239 3 -52 17 -86 71 -174 14
-22 41 -67 61 -100 19 -33 48 -80 64 -105 16 -25 34 -54 40 -65 6 -11 16 -29
23 -40 7 -11 33 -56 60 -100 26 -44 52 -87 57 -95 5 -8 91 -151 192 -317 101
-166 202 -333 225 -370 23 -37 46 -75 50 -83 4 -8 29 -51 56 -95 27 -44 57
-93 67 -110 10 -16 40 -67 69 -113 28 -46 51 -88 51 -93 0 -5 4 -9 9 -9 5 0
11 -6 13 -12 2 -7 70 -123 151 -258 174 -287 163 -269 207 -339 19 -31 35 -58
35 -61 0 -3 8 -16 17 -30 9 -14 73 -119 142 -235 70 -115 130 -217 136 -225
38 -62 127 -209 136 -225 25 -46 39 -70 45 -75 4 -3 16 -21 27 -41 42 -76 47
-84 52 -89 12 -12 200 -331 200 -339 0 -5 3 -11 8 -13 4 -2 45 -66 91 -143 47
-77 96 -158 110 -180 14 -22 26 -42 26 -45 1 -3 11 -21 23 -40 69 -111 127
-205 174 -284 29 -49 62 -104 73 -123 11 -18 86 -143 167 -276 81 -134 148
-250 150 -258 3 -12 -140 -14 -1018 -15 -992 0 -1021 -1 -1047 -20 -55 -40
-52 -121 7 -159 20 -13 379 -15 3218 -13 l3196 3 21 24 c23 27 22 24 26 68 3
45 -30 83 -80 91 -22 4 -714 7 -1538 6 l-1499 0 64 22 c35 12 101 34 148 49
47 14 94 30 105 35 28 12 188 71 200 74 6 2 24 8 40 15 17 6 73 28 125 49 52
20 97 40 98 44 2 5 12 8 23 8 11 0 27 4 37 10 9 5 46 23 82 39 490 217 899
432 1278 673 68 43 127 78 132 78 5 0 10 3 12 8 3 7 95 72 103 72 3 0 13 7 22
15 10 7 74 53 143 101 113 79 335 247 385 292 11 10 47 40 80 67 119 100 260
237 347 337 29 34 60 69 70 79 9 9 14 20 11 23 -3 3 2 8 11 12 9 3 16 12 16
19 0 7 6 18 14 24 14 12 66 114 71 141 2 8 4 15 6 15 3 0 9 50 9 82 1 30 -23
97 -72 203 -11 25 -34 79 -50 120 -17 41 -34 80 -37 85 -4 6 -14 26 -21 45 -7
19 -26 63 -42 98 -15 35 -28 65 -28 67 0 3 -11 28 -24 57 -13 29 -36 82 -51
118 -15 36 -33 79 -40 95 -43 102 -139 325 -150 350 -8 17 -48 111 -90 210
-42 99 -87 204 -101 233 -13 29 -24 55 -24 57 0 2 -11 29 -25 59 -14 30 -29
65 -34 78 -5 13 -59 140 -120 283 -62 143 -131 303 -153 355 -22 52 -49 113
-58 135 -10 22 -30 69 -45 105 -25 60 -46 110 -80 185 -7 17 -32 75 -55 130
-23 55 -50 118 -60 140 -10 22 -43 101 -75 175 -32 74 -86 200 -120 280 -65
150 -93 217 -95 225 -1 2 -19 43 -41 90 -21 47 -39 92 -39 100 0 8 -4 15 -10
15 -5 0 -10 6 -10 13 0 12 -49 131 -95 232 -52 115 -245 574 -245 584 0 6 -4
11 -10 11 -5 0 -10 6 -10 13 0 11 -59 156 -90 222 -5 11 -50 115 -100 230 -98
230 -118 258 -208 291 -44 15 -273 30 -285 18z m194 -193 c8 0 23 -7 33 -14
18 -13 17 -15 -2 -53 -43 -84 -192 -249 -326 -359 -27 -22 -54 -44 -60 -50 -9
-8 -99 -80 -141 -113 -67 -52 -148 -111 -230 -167 -55 -38 -106 -74 -113 -81
-6 -7 -21 -16 -32 -19 -11 -3 -20 -11 -20 -16 0 -5 -5 -9 -12 -9 -6 0 -19 -7
-29 -16 -10 -9 -85 -58 -166 -110 -81 -51 -153 -97 -158 -102 -6 -5 -15 -11
-20 -13 -6 -2 -59 -33 -118 -69 -59 -36 -120 -72 -135 -81 -116 -70 -427 -245
-536 -303 -43 -22 -104 -55 -135 -71 -68 -37 -344 -178 -351 -180 -3 -1 -102
-49 -220 -107 -118 -58 -235 -115 -260 -126 -25 -11 -89 -41 -143 -66 -53 -25
-99 -46 -102 -46 -2 -1 -14 -4 -25 -7 -11 -3 -20 -10 -20 -15 0 -5 -4 -7 -8
-4 -5 3 -22 -2 -38 -10 -16 -9 -72 -33 -124 -55 -52 -22 -104 -44 -115 -49
-60 -28 -145 -58 -145 -52 0 4 -4 2 -8 -4 -5 -8 -194 -84 -222 -90 -3 0 -18
-6 -33 -12 -16 -7 -30 -12 -32 -12 -2 0 -16 -5 -32 -12 -15 -6 -30 -12 -33
-13 -3 0 -57 -18 -120 -40 -63 -22 -117 -40 -120 -40 -3 0 -36 -10 -75 -22
-72 -22 -292 -82 -323 -87 -77 -15 -108 -19 -114 -18 -5 1 -8 -1 -8 -6 0 -9
-70 -14 -206 -16 -148 -1 -156 12 -78 129 34 51 164 190 249 265 53 47 204
170 239 195 16 11 33 25 40 30 6 6 56 43 111 82 55 40 105 76 110 80 6 5 37
26 70 48 33 21 65 43 70 47 6 5 42 29 80 53 39 25 75 48 80 53 30 23 207 132
215 132 6 0 10 4 10 9 0 5 8 11 18 14 17 6 73 38 82 47 5 6 167 102 232 138
20 12 55 32 77 46 22 15 43 26 45 26 2 0 46 24 98 54 110 63 203 113 313 170
44 23 82 44 85 47 11 12 612 309 626 309 8 0 14 5 14 10 0 6 4 10 9 10 6 0 47
17 93 39 46 21 112 52 148 68 36 17 135 61 220 98 85 36 169 73 185 80 17 7
75 31 130 54 55 22 114 45 130 52 17 7 32 13 35 14 3 0 32 11 65 24 139 53
314 116 380 135 6 2 17 6 25 9 18 7 121 40 135 43 13 4 115 33 135 40 55 17
320 73 372 79 35 4 64 8 65 9 2 2 134 0 164 -3z m181 -328 c6 -16 12 -30 13
-33 1 -3 9 -22 18 -44 9 -21 17 -42 17 -47 0 -5 5 -9 10 -9 6 0 9 -3 8 -7 -1
-9 6 -29 32 -88 9 -22 29 -69 45 -105 15 -36 31 -73 36 -82 16 -31 10 -30 -20
5 -23 26 -99 198 -115 262 -2 6 -7 21 -13 35 -28 70 -52 140 -48 140 3 0 11
-12 17 -27z m-148 -183 c15 -41 32 -87 38 -102 5 -15 7 -31 4 -37 -4 -5 -2
-12 3 -15 4 -3 11 -20 15 -38 3 -17 12 -39 20 -47 12 -15 27 -51 77 -188 12
-32 25 -67 29 -78 42 -106 50 -130 41 -133 -5 -2 0 -25 11 -53 12 -27 23 -47
26 -44 6 6 92 -221 92 -243 0 -8 13 -42 29 -76 16 -33 36 -81 45 -106 l15 -45
-20 25 -20 25 12 -25 c7 -14 18 -29 24 -35 7 -5 26 -50 44 -100 18 -49 37
-100 43 -111 7 -14 7 -28 1 -39 -12 -20 8 -70 37 -95 9 -8 43 -87 75 -175 32
-88 64 -172 72 -187 8 -17 9 -29 3 -33 -6 -3 -10 -13 -10 -22 0 -24 31 -83 42
-80 12 2 88 -194 93 -241 1 -18 10 -41 18 -50 8 -9 40 -87 72 -172 31 -85 66
-175 76 -200 14 -37 15 -47 5 -58 -18 -18 8 -100 31 -98 10 1 26 -25 48 -76
18 -43 31 -78 29 -78 -3 0 2 -12 9 -27 36 -71 36 -72 -45 -56 -73 14 -90 17
-183 28 -27 4 -61 8 -75 10 -49 7 -175 18 -196 17 -17 -1 -33 29 -109 206 -49
114 -99 230 -111 257 -23 53 -235 545 -398 925 -53 124 -103 239 -110 255 -8
17 -28 64 -46 105 -18 41 -39 91 -47 110 -9 19 -21 49 -28 65 -7 17 -41 95
-75 175 -34 80 -105 244 -157 365 -51 121 -98 227 -103 236 -7 13 9 29 73 77
45 33 92 68 104 79 12 10 37 29 55 43 48 37 161 134 226 195 31 29 60 50 63
47 3 -4 18 -41 33 -82z m352 -287 c4 -10 24 -60 45 -111 22 -51 39 -100 39
-108 0 -9 5 -12 13 -8 6 4 9 3 5 -1 -5 -5 -18 -9 -31 -11 -19 -2 -26 5 -36 34
-7 21 -16 46 -21 57 -25 60 -39 105 -32 105 4 0 2 4 -5 8 -13 8 -6 52 8 52 6
0 12 -8 15 -17z m-1020 -295 c24 -56 49 -112 54 -123 13 -28 267 -617 297
-690 14 -33 31 -73 38 -90 7 -16 28 -64 45 -105 18 -41 41 -95 52 -119 16 -35
95 -219 185 -431 8 -19 19 -44 24 -55 80 -182 109 -251 109 -262 0 -7 5 -13
10 -13 6 0 10 -5 10 -12 0 -6 39 -101 86 -210 103 -239 114 -266 114 -273 0
-3 9 -20 20 -40 10 -19 16 -36 12 -38 -4 -1 -145 -3 -314 -2 -170 0 -308 -2
-308 -5 0 -3 -42 -5 -93 -6 -93 0 -318 -12 -392 -19 -22 -2 -80 -7 -130 -10
-49 -3 -108 -8 -130 -10 -84 -9 -152 -15 -205 -20 -85 -7 -164 -15 -191 -20
-13 -2 -55 -6 -92 -10 -37 -3 -78 -8 -90 -11 -12 -2 -44 -6 -72 -9 -27 -2 -63
-7 -80 -10 -16 -2 -46 -7 -65 -9 -47 -6 -129 -19 -210 -31 -8 -2 -37 -6 -65
-9 -27 -3 -61 -8 -75 -11 -31 -6 -147 -26 -176 -30 -11 -2 -45 -8 -75 -14 -88
-17 -112 -22 -144 -26 -16 -2 -59 -11 -94 -20 -35 -8 -78 -17 -95 -20 -17 -2
-31 -4 -31 -5 0 -2 -17 -6 -60 -14 -16 -3 -84 -19 -150 -36 -66 -17 -129 -32
-140 -34 -26 -5 -175 -45 -195 -53 -8 -3 -19 -7 -25 -8 -28 -7 -234 -78 -262
-91 -17 -8 -35 -14 -40 -14 -18 0 -250 -122 -276 -145 -15 -15 -31 -24 -36
-21 -4 3 -48 63 -97 133 -48 70 -92 130 -96 131 -4 2 -8 10 -8 17 0 7 -4 15
-8 17 -4 2 -29 35 -55 73 -27 39 -69 99 -94 135 -25 36 -64 92 -87 125 -23 33
-45 64 -49 70 -9 11 -100 140 -117 165 -5 8 -50 72 -100 143 -49 70 -90 131
-90 136 0 5 -4 11 -8 13 -5 2 -28 32 -53 68 -24 36 -46 67 -49 70 -3 3 -16 19
-28 37 l-22 32 57 11 c154 31 454 110 494 131 9 4 27 10 40 13 13 2 112 35
219 74 279 100 294 106 302 117 4 6 8 7 8 3 0 -10 517 203 595 245 11 6 25 12
30 13 6 1 57 24 115 52 107 51 267 125 285 132 72 29 729 370 733 382 2 4 12
8 22 8 10 0 21 4 24 9 3 5 29 21 58 36 77 40 134 72 313 175 88 51 170 98 182
104 13 6 23 14 23 19 0 4 4 7 10 7 5 0 34 16 64 35 30 19 60 35 66 35 5 0 10
3 10 8 0 4 9 12 20 17 40 20 421 265 465 300 11 9 23 11 28 6 5 -5 29 -56 53
-113z m1134 32 c0 -5 -2 -10 -4 -10 -3 0 -8 5 -11 10 -3 6 -1 10 4 10 6 0 11
-4 11 -10z m14 -36 c3 -8 2 -12 -4 -9 -6 3 -10 10 -10 16 0 14 7 11 14 -7z
m25 -60 c7 -20 23 -57 34 -83 12 -25 22 -48 22 -51 1 -3 7 -18 13 -33 7 -16
10 -33 6 -38 -3 -5 -1 -9 5 -9 6 0 7 -7 4 -17 -4 -10 -2 -14 4 -10 7 4 31 -41
63 -116 29 -67 62 -144 74 -172 13 -27 28 -66 36 -85 7 -19 17 -39 22 -44 13
-16 9 -23 -14 -22 -31 1 -52 -41 -34 -69 16 -24 65 -32 77 -13 6 9 12 3 23
-22 8 -19 30 -72 49 -117 20 -44 33 -84 30 -87 -14 -14 -10 -56 8 -72 14 -13
19 -14 19 -3 0 18 23 -17 40 -61 7 -19 23 -58 36 -87 21 -46 44 -99 49 -113 1
-3 10 -23 19 -45 10 -22 26 -60 37 -84 11 -25 14 -39 6 -33 -16 12 -48 7 -58
-10 -22 -34 -1 -79 39 -85 21 -3 53 26 45 41 -3 6 -3 8 1 4 4 -3 7 -9 6 -12 0
-4 6 -19 14 -34 20 -38 56 -120 72 -164 10 -31 10 -39 -1 -48 -26 -21 -1 -76
37 -82 16 -2 33 -32 75 -128 29 -69 60 -139 68 -157 8 -17 15 -34 15 -37 0 -3
11 -29 25 -58 30 -63 30 -62 2 -44 -31 21 -64 10 -76 -24 -13 -39 19 -75 58
-65 14 4 27 10 29 13 6 17 21 36 25 32 2 -3 26 -59 54 -125 44 -106 48 -121
33 -127 -40 -15 -33 -72 11 -87 20 -7 31 -6 35 1 7 11 61 -107 69 -153 3 -15
9 -39 14 -53 10 -23 8 -66 -4 -110 -9 -34 -49 -120 -58 -127 -5 -3 -9 -10 -9
-15 1 -5 -11 -28 -26 -52 -25 -39 -30 -42 -61 -38 -22 3 -39 -1 -49 -10 -18
-18 -19 -63 -2 -74 14 -9 9 -20 -30 -64 -30 -35 -190 -196 -211 -212 -8 -6
-23 -22 -35 -35 -34 -40 -106 -99 -120 -99 -7 0 -15 4 -19 9 -3 6 -16 6 -34 0
-30 -11 -47 -45 -31 -64 12 -14 6 -21 -62 -78 l-57 -47 -13 27 c-16 32 -58 41
-82 18 -21 -22 -20 -51 3 -74 19 -19 19 -20 -24 -55 -24 -20 -48 -36 -53 -36
-6 0 -12 -4 -14 -8 -1 -5 -32 -28 -68 -53 -36 -24 -67 -47 -70 -50 -3 -3 -9
-8 -15 -10 -5 -2 -63 -39 -128 -81 -64 -43 -130 -85 -145 -93 -15 -8 -36 -21
-46 -28 -80 -50 -127 -77 -136 -77 -5 0 -10 -4 -10 -9 0 -5 -8 -11 -17 -14
-10 -3 -40 -19 -68 -35 -99 -58 -131 -75 -225 -124 -52 -27 -102 -53 -110 -58
-8 -5 -42 -22 -76 -38 l-61 -29 5 24 c6 32 -22 62 -55 58 -30 -3 -43 -20 -43
-57 0 -20 7 -29 28 -36 26 -9 24 -11 -58 -49 -74 -35 -86 -38 -94 -24 -23 43
-79 47 -93 7 -8 -24 -8 -22 2 -56 4 -14 4 -22 1 -19 -4 4 -35 -7 -69 -23 -49
-24 -65 -28 -79 -19 -39 24 -87 3 -88 -40 0 -11 -28 -27 -85 -49 -46 -18 -87
-32 -90 -31 -3 1 -26 -9 -53 -23 -38 -19 -102 -44 -132 -51 -3 -1 -16 -6 -30
-12 -14 -6 -57 -22 -96 -36 l-72 -26 11 30 c10 25 8 32 -10 50 -42 42 -105 -4
-80 -59 6 -12 16 -22 24 -22 35 0 5 -18 -72 -41 -67 -21 -87 -24 -93 -14 -7
13 -24 18 -54 16 -10 0 -24 -16 -31 -33 -14 -32 -20 -35 -156 -72 -103 -29
-149 -46 -166 -64 -25 -25 -27 -30 -28 -67 0 -55 48 -98 103 -91 21 3 137 33
203 53 10 3 17 0 17 -7 0 -15 29 -39 48 -40 20 0 60 49 56 68 -4 14 13 22 93
46 54 16 109 33 123 39 14 6 27 11 30 12 3 1 12 4 20 8 8 3 33 11 55 18 22 6
46 16 53 22 6 5 12 7 12 4 0 -5 53 13 143 49 13 5 18 3 16 -7 -5 -25 12 -58
32 -64 53 -17 97 69 47 92 -19 8 -14 12 43 32 35 12 71 26 81 31 11 6 22 4 37
-9 38 -33 83 -8 85 47 1 16 128 72 164 72 14 0 37 10 51 23 15 13 64 41 111
62 183 83 652 323 658 338 2 4 7 7 12 7 5 0 47 23 95 50 48 28 91 50 96 50 5
0 9 4 9 8 0 4 23 20 51 36 55 29 167 101 321 204 54 36 101 62 105 59 4 -4 1
-23 -6 -42 -15 -42 -1 -75 32 -75 20 0 33 -25 106 -193 102 -235 100 -226 67
-220 -31 6 -56 -16 -56 -51 0 -49 74 -62 96 -17 l12 23 7 -23 c4 -13 21 -53
38 -89 54 -119 58 -136 37 -155 -34 -31 -2 -90 45 -83 16 2 26 -11 53 -72 18
-41 35 -79 36 -85 2 -5 8 -23 15 -39 7 -17 8 -32 3 -35 -5 -3 -38 -25 -74 -49
-36 -23 -76 -45 -89 -47 -13 -3 -33 -15 -44 -29 -22 -26 -154 -110 -162 -102
-8 8 -63 -15 -58 -24 10 -16 -143 -110 -180 -110 -13 0 -32 -10 -42 -23 -21
-26 -73 -61 -73 -50 0 5 -4 3 -8 -2 -18 -27 -576 -299 -802 -392 -47 -19 -90
-40 -97 -45 -8 -7 -16 0 -28 21 -12 24 -22 31 -44 31 -46 0 -66 -34 -47 -80 9
-21 -127 -74 -154 -60 -29 16 -40 12 -74 -24 -25 -27 -57 -42 -174 -81 -78
-26 -148 -48 -155 -49 -7 -1 -16 -4 -22 -7 -5 -4 -23 -10 -40 -14 -16 -5 -34
-9 -40 -11 -82 -24 -115 -31 -115 -23 0 5 -11 16 -25 25 -23 15 -27 15 -50 0
-14 -9 -25 -25 -25 -35 0 -20 -30 -38 -79 -46 -19 -3 -37 -8 -40 -10 -4 -2
-24 -6 -46 -9 -22 -4 -69 -12 -103 -20 l-64 -13 5 25 c5 28 -23 62 -51 62 -42
-1 -63 -40 -42 -80 8 -16 5 -18 -28 -22 -20 -3 -90 -5 -156 -6 l-119 -1 -27
29 c-16 17 -33 30 -38 30 -20 0 -135 200 -137 237 -1 35 -24 63 -50 63 -7 0
-17 12 -24 28 -7 15 -28 50 -47 79 -19 28 -34 56 -34 61 0 5 -7 15 -15 22 -9
8 -13 21 -9 35 7 30 -12 65 -34 65 -12 0 -39 35 -82 106 -51 85 -64 113 -61
140 2 31 -1 36 -32 49 -23 9 -40 27 -52 52 -10 21 -21 40 -25 43 -16 11 -71
120 -70 137 4 39 -1 51 -30 63 -41 17 -151 195 -146 236 5 35 -14 65 -43 67
-13 1 -30 18 -48 51 -46 80 -57 100 -75 125 -11 16 -15 34 -11 57 6 37 -14 63
-48 64 -9 0 -27 20 -40 45 -13 25 -27 45 -31 45 -5 0 -8 5 -8 10 0 6 -13 31
-29 57 -21 33 -27 52 -21 67 9 25 -7 65 -27 67 -7 1 -18 2 -25 3 -7 0 -40 48
-74 105 -53 88 -61 107 -51 122 14 23 1 48 -34 66 -33 17 -59 36 -59 44 0 4
-20 40 -45 81 -39 62 -45 78 -40 108 5 28 2 40 -13 54 -11 9 -27 16 -36 14
-10 -2 -35 29 -76 96 -52 85 -59 104 -52 125 11 33 -4 71 -30 72 -10 1 -22 2
-28 3 -9 1 -81 110 -114 174 -13 25 -14 35 -4 51 16 26 -12 68 -48 73 -22 2
-37 20 -80 92 -60 99 -61 102 -50 133 10 31 -6 55 -45 68 -27 10 -44 30 -90
106 -54 89 -56 95 -43 120 12 24 12 30 -4 49 -10 13 -29 23 -43 23 -20 0 -33
12 -62 59 -20 33 -37 64 -37 69 0 5 -3 9 -8 9 -4 0 -13 14 -21 30 -10 25 -11
37 -1 61 11 27 10 31 -11 50 -13 11 -32 19 -44 17 -14 -2 -27 8 -45 39 -14 23
-40 67 -58 97 -22 37 -31 63 -27 76 9 29 20 25 52 -20 72 -103 123 -176 131
-185 31 -40 102 -148 102 -155 0 -5 8 -17 18 -27 39 -38 164 -224 159 -237 -8
-20 31 -79 47 -73 9 4 30 -18 57 -56 24 -34 47 -64 51 -65 5 -2 6 -8 2 -13 -3
-5 -1 -9 3 -9 13 0 44 -58 34 -62 -6 -1 -12 -15 -15 -30 -5 -32 22 -61 56 -57
33 5 45 -6 73 -66 13 -30 41 -72 61 -95 33 -36 34 -40 15 -40 -13 0 -22 -7
-23 -17 0 -10 -2 -25 -3 -33 -2 -18 23 -50 39 -50 6 0 23 6 38 14 26 14 27 14
92 -80 36 -51 66 -96 66 -100 0 -4 8 -13 18 -20 15 -11 13 -12 -14 -8 -61 9
-89 -66 -34 -93 31 -15 62 2 70 38 5 20 17 7 92 -101 48 -69 91 -129 95 -135
24 -27 93 -135 93 -145 0 -6 11 -21 23 -33 13 -12 53 -62 88 -112 47 -66 64
-99 65 -125 1 -19 2 -38 3 -42 1 -7 42 -23 53 -20 4 1 38 -43 77 -97 64 -92
68 -101 55 -120 -22 -30 -8 -68 27 -76 16 -4 32 -4 37 -1 12 7 42 -26 86 -96
19 -31 46 -65 60 -75 l24 -19 -29 -11 c-54 -21 -55 -84 -1 -98 33 -8 65 21 60
55 l-4 26 47 -22 c26 -13 59 -26 73 -30 l26 -6 -25 -23 c-21 -20 -23 -27 -14
-52 7 -22 17 -29 38 -31 42 -3 64 23 56 65 -6 32 -5 33 19 27 35 -8 168 -11
241 -4 52 4 62 2 82 -17 27 -28 43 -29 73 -3 13 11 19 20 15 20 -22 0 14 19
45 24 66 10 140 26 201 41 56 15 85 13 74 -4 -7 -12 17 -38 41 -45 13 -4 29 1
44 14 21 18 23 24 13 50 -10 28 -10 28 33 39 24 6 46 11 49 11 3 0 18 6 33 14
17 9 34 11 42 6 15 -10 38 -3 63 18 17 15 113 53 187 74 19 5 39 14 44 19 6 5
15 9 22 9 6 0 29 8 50 17 22 9 44 17 49 19 13 2 99 40 148 64 33 16 39 17 52
3 8 -8 15 -18 15 -23 0 -14 38 -18 61 -6 24 12 38 64 19 76 -5 3 21 21 59 39
56 26 74 30 90 22 43 -23 77 -8 86 39 5 27 -3 21 70 56 35 17 74 29 94 28 27
-1 37 4 50 27 9 16 23 31 32 34 9 3 43 20 75 37 32 18 66 33 75 33 9 1 33 15
55 32 21 17 75 50 119 73 44 23 85 45 90 50 6 4 62 38 125 75 63 37 117 71
118 76 2 5 8 9 13 9 6 0 36 18 68 39 32 22 69 43 82 46 13 3 42 24 63 45 22
22 45 40 53 40 7 0 13 3 13 8 0 13 65 45 87 43 25 -3 53 20 57 46 2 9 28 37
60 62 52 41 60 44 86 34 52 -20 103 32 71 71 -9 10 -4 19 21 38 18 14 50 42
71 61 36 35 37 35 37 11 0 -32 33 -64 59 -57 11 3 27 15 35 27 20 31 1 69 -37
76 -27 5 -27 6 40 71 37 36 84 85 103 108 56 69 60 71 85 65 16 -4 30 1 44 15
20 20 22 38 7 73 -5 10 2 33 18 60 24 41 52 109 62 153 14 57 22 232 12 275
-3 14 -2 35 3 48 6 16 5 22 -5 22 -8 0 -16 -5 -18 -11 -2 -5 -11 -7 -20 -4
-15 6 -14 10 9 29 21 18 25 28 19 49 -9 36 -38 50 -70 35 -15 -6 -28 -9 -29
-7 -2 2 -16 40 -32 84 -15 44 -32 91 -38 105 -5 14 -9 42 -8 62 2 27 -2 39
-17 47 -11 6 -32 45 -51 98 -18 48 -38 104 -46 123 -70 180 -73 193 -53 214
28 30 4 90 -34 84 -16 -2 -25 10 -45 62 -42 111 -83 223 -101 275 -9 28 -20
53 -26 57 -5 3 7 13 27 22 20 8 37 19 38 23 0 4 2 16 4 25 2 10 -8 27 -22 38
-23 18 -27 18 -53 5 -27 -14 -29 -14 -35 8 -3 12 -10 31 -15 42 -37 89 -54
145 -54 181 -1 32 -8 50 -27 71 -15 16 -44 77 -67 143 -23 63 -53 148 -68 188
-24 67 -25 74 -10 91 33 36 10 90 -39 91 -16 0 -28 23 -65 123 -25 67 -45 124
-46 127 0 3 -4 12 -7 20 -16 39 -47 126 -47 133 0 4 13 7 28 7 23 0 30 -6 41
-36z m-5541 -1871 c23 -33 27 -43 14 -43 -4 0 -16 17 -27 38 -11 20 -28 46
-37 56 -10 11 -18 24 -18 29 0 9 33 -30 68 -80z m131 -190 c22 -32 44 -62 49
-68 20 -25 53 -75 50 -76 -40 -9 -44 -6 -80 57 -21 37 -38 70 -38 75 0 5 -4 9
-8 9 -8 0 -32 43 -32 55 0 19 25 -4 59 -52z m6317 -1709 c1 -13 22 -65 34 -87
8 -12 6 -24 -5 -41 -21 -32 -3 -74 33 -78 25 -3 41 -33 137 -263 10 -22 28
-63 41 -92 13 -28 24 -54 24 -56 0 -2 -14 -1 -32 1 -22 3 -35 0 -45 -14 -27
-37 -4 -84 42 -84 26 0 58 36 48 54 -4 7 -3 8 4 1 5 -5 20 -37 33 -70 13 -33
34 -82 47 -109 27 -58 28 -72 9 -83 -41 -23 -7 -100 39 -89 20 5 26 -3 55 -69
18 -42 31 -76 29 -78 -2 -1 -19 -15 -37 -32 -29 -26 -33 -27 -31 -10 4 31 -10
63 -32 70 -28 9 -69 -20 -69 -49 0 -39 48 -65 80 -43 32 21 -75 -73 -116 -103
l-44 -31 -9 23 c-5 13 -25 60 -45 106 l-35 82 24 0 c45 0 67 67 31 92 -19 13
-58 9 -70 -8 -10 -13 -21 4 -63 101 -36 80 -48 118 -39 121 6 2 13 17 14 33 2
29 -20 56 -51 62 -13 3 -42 59 -101 194 -102 237 -100 231 -83 217 7 -6 22 -9
32 -7 11 2 23 4 26 4 15 2 26 48 16 67 -14 26 -12 24 -39 29 -28 5 -65 -26
-53 -44 3 -6 3 -11 0 -11 -3 0 -17 24 -30 53 l-25 52 42 35 c32 26 52 35 81
36 43 0 58 16 55 55 -2 18 6 34 27 52 29 26 49 30 51 11z m-1516 -328 c0 -2
-7 -7 -16 -10 -8 -3 -12 -2 -9 4 6 10 25 14 25 6z m-70 -40 c0 -2 -7 -7 -16
-10 -8 -3 -12 -2 -9 4 6 10 25 14 25 6z m-69 -37 c-19 -12 -69 -39 -110 -61
-42 -22 -96 -52 -121 -66 -25 -13 -40 -20 -35 -14 13 14 277 160 290 161 6 1
-5 -9 -24 -20z"/>
<path d="M6325 5155 c4 -11 8 -26 8 -32 0 -15 13 -17 21 -4 3 5 -3 20 -15 32
-18 21 -20 21 -14 4z"/>
<path d="M3800 6213 c-59 -8 -90 -44 -90 -101 0 -58 40 -87 133 -98 29 -3 63
-8 77 -10 14 -3 36 -7 50 -8 47 -6 135 -18 155 -22 11 -2 40 -6 65 -9 25 -3
54 -7 65 -9 11 -2 49 -8 85 -12 36 -4 68 -9 73 -10 4 -1 14 -2 23 -3 12 -1 15
-9 10 -38 -10 -67 -18 -127 -22 -163 -2 -19 -6 -46 -9 -60 -3 -14 -7 -45 -10
-70 -3 -25 -12 -88 -20 -140 -8 -52 -17 -117 -21 -145 -3 -27 -8 -52 -9 -55
-2 -3 5 -24 15 -47 25 -56 83 -72 138 -37 27 17 39 45 46 106 9 69 24 171 36
253 5 33 12 76 14 95 3 19 10 71 16 115 6 44 14 91 16 105 3 14 8 59 11 100 5
67 3 78 -17 103 -28 35 -63 53 -123 61 -27 4 -56 9 -65 11 -10 1 -44 6 -77 9
-33 4 -67 9 -75 11 -8 2 -37 7 -65 10 -27 4 -59 8 -70 10 -11 2 -45 6 -75 10
-30 3 -64 8 -75 10 -11 3 -37 7 -57 10 -58 8 -112 17 -118 19 -3 1 -16 0 -30
-1z"/>
<path d="M3449 6133 c-37 -31 -42 -62 -23 -141 8 -37 18 -78 20 -92 3 -14 14
-59 24 -100 10 -41 22 -90 25 -109 3 -19 8 -37 10 -41 2 -3 6 -17 9 -31 2 -13
10 -46 16 -74 6 -27 14 -61 16 -75 3 -14 19 -81 35 -150 27 -111 39 -165 40
-172 0 -2 11 -45 24 -97 13 -52 22 -98 19 -103 -3 -4 0 -8 5 -8 6 0 10 -3 9
-7 -2 -10 17 -110 22 -115 1 -2 4 -15 6 -30 3 -33 31 -73 59 -86 43 -20 107 5
125 49 12 29 10 56 -14 157 -14 56 -28 120 -32 137 -2 11 -6 29 -8 40 -2 11
-9 40 -16 65 -13 47 -18 69 -26 110 -3 14 -23 99 -45 189 -21 90 -41 174 -43
187 -3 13 -7 32 -10 42 -3 9 -7 28 -10 42 -4 28 -32 145 -46 200 -5 19 -14 60
-21 90 -18 83 -34 117 -67 134 -38 20 -70 16 -103 -11z"/>
<path d="M2877 5758 c-9 -5 -17 -6 -17 -2 0 11 -50 -49 -51 -61 0 -5 -2 -19
-5 -30 -4 -21 -8 -49 -19 -130 -4 -27 -9 -59 -11 -70 -7 -49 -14 -94 -20 -140
-16 -122 -24 -175 -29 -205 -6 -30 -13 -88 -20 -155 -6 -60 17 -111 61 -137
26 -15 51 -20 164 -34 19 -2 46 -6 60 -9 44 -8 132 -20 219 -30 30 -3 57 -8
61 -10 3 -2 37 -6 75 -10 39 -4 73 -9 76 -11 3 -2 33 -6 65 -10 32 -3 61 -7
62 -9 2 -2 17 1 32 7 60 21 83 105 42 152 -22 24 -46 33 -112 41 -29 4 -62 9
-74 11 -12 2 -41 6 -66 9 -25 2 -56 7 -70 10 -14 3 -45 8 -70 10 -25 2 -54 6
-65 8 -21 5 -71 13 -145 23 -25 3 -52 8 -60 9 -8 2 -25 4 -37 4 -16 1 -21 6
-18 24 1 12 6 49 10 82 4 33 9 63 11 67 3 4 7 27 9 50 2 24 7 66 11 93 4 28 8
60 10 73 2 20 12 87 29 192 21 131 7 167 -76 193 -8 3 -23 1 -32 -5z"/>
<path d="M6695 5012 c-31 -7 -45 -22 -45 -49 0 -65 81 -74 103 -11 9 24 -32
66 -58 60z"/>
<path d="M6993 4188 c-32 -35 9 -93 58 -81 9 3 22 16 28 30 25 55 -45 97 -86
51z"/>
<path d="M6969 3969 c-20 -20 -20 -21 -1 -52 14 -25 24 -31 43 -29 33 5 49 20
49 48 0 50 -54 70 -91 33z"/>
<path d="M6736 3634 c-28 -27 -30 -56 -6 -76 27 -22 53 -23 69 -4 20 24 20 54
0 72 -26 23 -46 26 -63 8z"/>
<path d="M6045 3018 c-29 -16 -34 -27 -26 -57 10 -37 53 -51 81 -26 24 22 25
43 4 73 -17 25 -30 27 -59 10z"/>
<path d="M1847 2920 c-39 -31 -20 -90 29 -90 44 0 68 46 41 81 -20 26 -44 29
-70 9z"/>
<path d="M5800 2860 c-11 -26 -10 -33 5 -50 10 -11 28 -20 40 -20 12 0 30 9
40 20 15 17 16 24 5 50 -10 25 -18 30 -45 30 -27 0 -35 -5 -45 -30z"/>
<path d="M5598 2753 c-19 -5 -34 -44 -25 -67 10 -26 41 -36 68 -23 31 16 39
65 13 84 -18 13 -26 14 -56 6z"/>
<path d="M2022 2624 c-39 -27 -13 -95 34 -89 33 3 47 18 47 50 0 44 -44 65
-81 39z"/>
<path d="M5369 2616 c-37 -27 -27 -79 16 -90 31 -8 65 15 65 44 0 40 -50 69
-81 46z"/>
<path d="M5992 2588 c-33 -16 -27 -67 11 -88 27 -14 29 -14 52 13 21 23 23 31
13 52 -6 14 -15 25 -19 25 -4 0 -13 2 -21 4 -7 3 -23 0 -36 -6z"/>
<path d="M6184 2499 c-20 -22 -12 -64 15 -79 23 -12 71 3 72 22 0 7 2 21 4 30
7 38 -62 59 -91 27z"/>
<path d="M5141 2481 c-21 -13 -22 -57 -1 -76 25 -23 61 -15 79 17 14 24 14 28
-3 47 -20 22 -51 27 -75 12z"/>
<path d="M5772 2455 c-29 -21 -34 -53 -11 -76 26 -26 63 -24 78 5 26 48 -24
100 -67 71z"/>
<path d="M5972 2374 c-40 -28 -20 -93 30 -94 24 0 48 27 48 55 0 20 -32 55
-50 55 -3 0 -16 -7 -28 -16z"/>
<path d="M2193 2325 c-16 -18 -17 -57 -1 -73 20 -20 65 -14 82 10 33 47 -43
107 -81 63z"/>
<path d="M5539 2314 c-42 -51 9 -113 63 -75 29 20 33 37 13 67 -18 28 -56 32
-76 8z"/>
<path d="M6157 2279 c-18 -25 -11 -55 16 -74 17 -12 24 -12 48 1 49 25 36 84
-19 90 -23 3 -35 -2 -45 -17z"/>
<path d="M5734 2225 c-15 -23 -15 -27 0 -50 19 -29 56 -33 80 -9 21 21 20 47
-2 67 -27 24 -59 21 -78 -8z"/>
<path d="M5322 2184 c-39 -27 -19 -94 28 -94 27 0 59 37 53 61 -5 18 -39 49
-53 49 -3 0 -16 -7 -28 -16z"/>
<path d="M4283 2167 c-31 -13 -38 -43 -19 -72 35 -53 109 -11 86 49 -10 28
-37 37 -67 23z"/>
<path d="M5943 2153 c-24 -22 -23 -61 2 -79 26 -19 42 -17 65 6 26 26 25 44
-2 70 -27 25 -39 25 -65 3z"/>
<path d="M5514 2095 c-18 -27 -11 -61 14 -73 50 -24 98 29 66 72 -20 29 -62
29 -80 1z"/>
<path d="M6141 2069 c-12 -12 -20 -28 -17 -36 3 -8 6 -19 6 -24 0 -5 12 -14
26 -19 51 -20 90 29 60 75 -20 31 -45 32 -75 4z"/>
<path d="M5086 2039 c-23 -33 0 -79 40 -79 27 0 54 24 54 50 0 47 -67 67 -94
29z"/>
<path d="M2383 2042 c-5 -4 -15 -16 -20 -27 -27 -51 43 -100 79 -55 10 12 18
28 18 34 0 33 -51 64 -77 48z"/>
<path d="M4050 2028 c-30 -28 -23 -70 13 -82 36 -13 61 2 65 38 6 51 -42 78
-78 44z"/>
<path d="M5719 2019 c-23 -23 -24 -52 -3 -73 41 -42 112 14 79 62 -21 29 -53
34 -76 11z"/>
<path d="M6341 1989 c-25 -24 -26 -37 -5 -67 20 -30 59 -29 80 3 21 31 11 61
-25 73 -24 8 -33 7 -50 -9z"/>
<path d="M5286 1959 c-28 -40 15 -90 64 -74 25 8 35 46 20 74 -15 28 -64 28
-84 0z"/>
<path d="M5934 1949 c-30 -11 -40 -56 -18 -80 20 -22 43 -24 67 -6 49 35 8
108 -49 86z"/>
<path d="M4878 1923 c-10 -2 -18 -8 -19 -11 0 -4 -2 -16 -4 -28 -9 -44 43 -75
79 -48 24 17 24 64 0 81 -18 13 -26 14 -56 6z"/>
<path d="M5491 1879 c-43 -47 25 -113 70 -68 24 24 24 51 1 72 -25 23 -47 21
-71 -4z"/>
<path d="M6116 1854 c-23 -22 -20 -59 7 -76 47 -31 100 22 69 69 -17 27 -54
30 -76 7z"/>
<path d="M3390 1829 c-17 -31 -4 -68 27 -75 31 -8 53 4 64 33 19 51 -66 90
-91 42z"/>
<path d="M5082 1843 c-41 -16 -30 -87 15 -96 32 -6 64 24 58 54 -8 42 -35 57
-73 42z"/>
<path d="M5698 1809 c-21 -12 -23 -48 -5 -71 21 -26 46 -29 67 -8 49 49 -3
114 -62 79z"/>
<path d="M2984 1796 c-39 -23 -21 -96 24 -96 22 0 37 11 50 36 21 40 -33 84
-74 60z"/>
<path d="M4651 1784 c-25 -18 -27 -56 -5 -78 31 -31 84 -8 84 36 0 42 -45 65
-79 42z"/>
<path d="M6324 1782 c-18 -12 -26 -50 -14 -72 16 -30 65 -27 86 5 15 23 15 27
0 50 -16 25 -49 32 -72 17z"/>
<path d="M5270 1750 c-35 -35 -19 -79 32 -87 24 -4 57 31 53 55 -2 9 -4 20 -4
23 -1 5 -47 29 -56 29 -3 0 -14 -9 -25 -20z"/>
<path d="M2550 1732 c-45 -37 10 -111 60 -79 11 6 20 14 21 17 0 3 2 13 4 22
4 21 -27 58 -48 58 -8 0 -25 -8 -37 -18z"/>
<path d="M5898 1726 c-34 -25 -22 -82 19 -92 47 -12 83 57 47 87 -22 18 -46
20 -66 5z"/>
<path d="M3174 1706 c-21 -23 -23 -45 -4 -69 41 -52 116 6 81 62 -12 18 -62
23 -77 7z"/>
<path d="M4850 1700 c-25 -25 -26 -52 -1 -74 13 -12 27 -15 46 -10 48 12 54
77 8 95 -32 12 -30 12 -53 -11z"/>
<path d="M6515 1686 c-22 -34 -11 -73 23 -79 50 -10 84 46 50 82 -25 28 -54
26 -73 -3z"/>
<path d="M5470 1670 c-25 -25 -25 -41 0 -68 31 -33 90 -10 90 35 0 18 -37 53
-55 53 -8 0 -24 -9 -35 -20z"/>
<path d="M2746 1648 c-21 -32 -10 -65 24 -77 35 -12 58 3 65 39 6 34 -5 49
-42 56 -26 5 -34 2 -47 -18z"/>
<path d="M4416 1639 c-23 -33 0 -79 40 -79 27 0 54 24 54 50 0 47 -67 67 -94
29z"/>
<path d="M6110 1653 c-38 -15 -41 -66 -5 -89 23 -15 27 -15 50 0 55 36 17 112
-45 89z"/>
<path d="M5041 1616 c-22 -26 -9 -69 22 -80 36 -13 61 2 65 38 4 35 -14 56
-48 56 -15 0 -33 -6 -39 -14z"/>
<path d="M3995 1590 c-15 -17 -16 -24 -7 -45 22 -47 85 -46 96 1 14 53 -52 85
-89 44z"/>
<path d="M5690 1602 c-53 -18 -44 -102 11 -102 33 0 58 30 52 64 -5 26 -39 46
-63 38z"/>
<path d="M2960 1577 c-27 -14 -31 -28 -17 -68 7 -22 14 -27 38 -25 33 2 44 11
53 43 5 15 1 28 -13 42 -24 24 -28 25 -61 8z"/>
<path d="M4632 1574 c-40 -28 -21 -94 27 -94 24 0 51 25 51 48 -1 41 -47 68
-78 46z"/>
<path d="M6302 1565 c-29 -21 -33 -50 -10 -74 22 -25 51 -27 72 -5 43 43 -12
113 -62 79z"/>
<path d="M5240 1529 c-9 -16 -9 -28 1 -50 10 -25 16 -29 43 -26 39 4 59 39 44
73 -15 32 -72 34 -88 3z"/>
<path d="M4199 1514 c-31 -38 -12 -86 35 -86 31 0 41 7 50 39 5 15 0 28 -15
42 -27 25 -52 27 -70 5z"/>
<path d="M5888 1522 c-9 -2 -21 -17 -27 -33 -9 -25 -7 -33 9 -49 48 -48 112
10 76 69 -7 11 -36 18 -58 13z"/>
<path d="M3155 1493 c-35 -25 -14 -84 30 -88 40 -4 65 44 41 80 -17 25 -44 29
-71 8z"/>
<path d="M4827 1488 c-10 -7 -19 -23 -21 -35 -9 -44 68 -76 91 -39 17 26 13
55 -9 70 -27 19 -39 20 -61 4z"/>
<path d="M3776 1464 c-21 -21 -20 -50 3 -73 23 -23 55 -18 76 11 23 34 -8 77
-57 78 -4 0 -14 -7 -22 -16z"/>
<path d="M5447 1452 c-31 -34 -20 -69 26 -85 25 -9 69 35 61 60 -15 43 -60 55
-87 25z"/>
<path d="M2718 1425 c-24 -53 21 -92 73 -65 22 12 26 59 7 78 -22 22 -67 14
-80 -13z"/>
<path d="M4412 1443 c-22 -9 -33 -40 -22 -67 8 -21 16 -26 45 -26 28 0 38 5
47 25 20 44 -23 87 -70 68z"/>
<path d="M6065 1420 c-36 -39 14 -103 61 -77 26 14 33 27 28 50 -9 48 -57 63
-89 27z"/>
<path d="M3353 1414 c-25 -26 -26 -61 -2 -78 30 -21 52 -20 71 2 13 14 16 58
4 69 -13 14 -63 19 -73 7z"/>
<path d="M5022 1405 c-34 -39 16 -108 60 -84 26 14 33 36 22 67 -11 31 -61 41
-82 17z"/>
<path d="M3976 1381 c-34 -37 -11 -91 38 -91 22 0 46 28 46 54 0 43 -56 68
-84 37z"/>
<path d="M5647 1372 c-23 -25 -21 -59 2 -72 32 -17 60 -11 77 15 15 23 15 27
0 50 -20 30 -56 33 -79 7z"/>
<path d="M2920 1351 c-15 -28 -12 -46 8 -64 26 -24 59 -21 77 7 13 19 14 28 4
50 -10 20 -19 26 -45 26 -23 0 -37 -6 -44 -19z"/>
<path d="M4599 1349 c-23 -23 -24 -38 -3 -67 25 -36 79 -22 88 23 9 46 -51 78
-85 44z"/>
<path d="M3554 1327 c-22 -19 -24 -26 -15 -48 5 -15 20 -29 34 -33 26 -6 56 1
58 13 0 3 2 15 4 25 10 51 -41 77 -81 43z"/>
<path d="M5226 1324 c-36 -26 -14 -94 31 -94 17 0 53 36 53 53 0 40 -52 65
-84 41z"/>
<path d="M4175 1298 c-20 -29 -19 -51 3 -71 22 -20 41 -21 63 -4 25 20 29 44
10 68 -25 31 -57 34 -76 7z"/>
<path d="M5859 1303 c-16 -4 -29 -31 -29 -60 0 -19 43 -43 67 -37 11 3 25 16
31 29 9 19 7 28 -9 49 -20 26 -28 28 -60 19z"/>
<path d="M3126 1274 c-21 -21 -20 -50 3 -73 23 -23 55 -18 76 11 33 48 -38
104 -79 62z"/>
<path d="M4814 1280 c-12 -4 -24 -15 -27 -24 -7 -18 8 -65 20 -67 41 -7 55 -4
68 15 20 28 19 42 -5 66 -22 22 -25 23 -56 10z"/>
<path d="M3748 1243 c-8 -10 -13 -24 -12 -30 1 -7 2 -19 3 -26 2 -22 44 -37
67 -24 10 6 22 15 26 21 9 14 -2 59 -16 68 -19 13 -52 9 -68 -9z"/>
<path d="M5420 1233 c-22 -28 -15 -54 19 -72 32 -17 60 -2 67 36 5 29 3 38
-12 47 -31 18 -54 15 -74 -11z"/>
<path d="M4366 1209 c-13 -19 -13 -25 0 -50 32 -63 115 -18 86 46 -15 33 -64
35 -86 4z"/>
<path d="M3333 1202 c-20 -13 -27 -60 -10 -77 22 -21 63 -19 80 6 15 21 12 59
-7 71 -14 10 -48 10 -63 0z"/>
<path d="M4992 1179 c-14 -21 -7 -59 12 -71 33 -22 87 8 81 45 -8 48 -69 65
-93 26z"/>
<path d="M3946 1159 c-23 -33 0 -79 40 -79 27 0 54 24 54 50 0 47 -67 67 -94
29z"/>
<path d="M5641 1167 c-33 -17 -43 -49 -25 -76 17 -24 50 -27 77 -7 23 18 22
47 -3 74 -24 26 -19 25 -49 9z"/>
<path d="M2918 1153 c-9 -2 -21 -17 -26 -33 -8 -23 -7 -32 9 -49 11 -12 26
-21 34 -21 21 0 55 37 55 59 0 18 -36 53 -50 50 -3 -1 -13 -3 -22 -6z"/>
<path d="M4570 1130 c-12 -22 -4 -60 14 -72 23 -15 56 -8 72 17 15 23 15 27 0
50 -21 32 -70 35 -86 5z"/>
<path d="M3525 1110 c-8 -9 -15 -26 -15 -37 0 -22 28 -50 48 -47 6 1 18 2 25
3 8 0 19 13 26 27 10 23 9 30 -10 50 -24 26 -53 27 -74 4z"/>
<path d="M5204 1109 c-24 -27 -27 -54 -8 -70 28 -23 61 -21 78 3 21 30 20 45
-4 65 -27 24 -46 24 -66 2z"/>
<path d="M4150 1084 c-31 -37 -2 -97 42 -89 24 5 48 30 48 50 0 39 -67 68 -90
39z"/>
<path d="M3113 1068 c-32 -15 -31 -62 1 -83 35 -23 76 -3 76 37 0 48 -33 67
-77 46z"/>
<path d="M4777 1056 c-24 -18 -19 -64 8 -82 46 -30 99 40 60 80 -20 19 -44 20
-68 2z"/>
<path d="M3730 1030 c-24 -24 -25 -38 -5 -67 11 -16 22 -20 43 -17 31 6 37 11
46 41 5 15 1 28 -13 42 -26 26 -46 26 -71 1z"/>
<path d="M5397 1022 c-23 -25 -21 -47 4 -71 17 -16 26 -17 49 -9 35 12 44 32
27 66 -15 34 -56 41 -80 14z"/>
<path d="M4358 1008 c-29 -24 -29 -48 -2 -73 25 -23 44 -24 72 -2 18 14 15 51
-6 70 -22 20 -43 22 -64 5z"/>
<path d="M3320 987 c-34 -17 -43 -51 -21 -76 25 -29 64 -27 80 3 26 47 -14 96
-59 73z"/>
<path d="M5000 990 c0 -5 -6 -10 -14 -10 -37 0 -25 -83 13 -93 32 -8 69 26 63
58 -4 25 -62 67 -62 45z"/>
<path d="M3943 959 c-56 -21 -27 -110 31 -95 32 8 53 51 35 73 -20 23 -43 31
-66 22z"/>
<path d="M4569 933 c-23 -5 -38 -43 -28 -70 11 -31 54 -40 79 -18 19 17 21 49
6 74 -7 11 -36 18 -57 14z"/>
<path d="M3511 903 c-37 -26 -17 -94 27 -93 40 1 67 52 44 86 -12 19 -50 22
-71 7z"/>
<path d="M5176 891 c-22 -24 -20 -54 3 -75 22 -20 58 -14 77 12 16 22 5 60
-20 69 -37 12 -44 11 -60 -6z"/>
<path d="M4125 863 c-33 -50 20 -102 70 -69 19 13 24 23 21 43 -7 34 -17 44
-50 47 -18 2 -30 -4 -41 -21z"/>
<path d="M3082 848 c-20 -26 -23 -56 -7 -72 51 -51 122 13 76 68 -16 19 -55
21 -69 4z"/>
<path d="M4757 845 c-24 -17 -22 -67 3 -83 30 -18 74 4 78 39 5 42 -46 70 -81
44z"/>
<path d="M3708 818 c-28 -23 -29 -48 -3 -74 24 -24 26 -24 55 -9 21 11 30 23
30 40 0 45 -48 70 -82 43z"/>
<path d="M4326 785 c-34 -35 -9 -89 39 -83 39 4 61 43 41 73 -17 26 -59 31
-80 10z"/>
<path d="M3288 768 c-35 -29 -23 -79 21 -91 24 -6 61 26 61 53 0 41 -49 63
-82 38z"/>
<path d="M3900 729 c-27 -49 21 -102 66 -72 29 18 35 47 17 72 -19 28 -68 28
-83 0z"/>
<path d="M4543 717 c-23 -10 -28 -23 -24 -62 2 -23 18 -35 47 -35 23 0 51 28
48 48 -1 6 -2 18 -3 25 -2 22 -42 36 -68 24z"/>
<path d="M3488 688 c-28 -23 -31 -54 -7 -77 26 -24 39 -26 61 -8 28 21 31 54
9 76 -24 24 -41 26 -63 9z"/>
<path d="M4113 662 c-6 -4 -16 -20 -22 -34 -9 -24 -7 -30 16 -48 31 -24 33
-24 61 -4 22 15 29 48 14 71 -10 15 -54 25 -69 15z"/>
<path d="M3688 608 c-28 -22 -26 -58 3 -80 22 -16 30 -18 48 -9 33 18 39 61
11 83 -26 21 -40 23 -62 6z"/>
<path d="M4313 582 c-19 -12 -27 -66 -11 -79 27 -21 47 -21 71 -2 50 38 -7
115 -60 81z"/>
<path d="M3280 562 c-8 -2 -21 -11 -27 -20 -42 -53 33 -112 78 -61 32 37 -4
95 -51 81z"/>
<path d="M3893 527 c-28 -12 -36 -46 -17 -74 28 -43 87 -21 90 33 2 37 -35 58
-73 41z"/>
<path d="M3473 479 c-30 -11 -38 -45 -19 -74 28 -43 85 -24 90 28 4 34 -36 60
-71 46z"/>
<path d="M6860 2905 c-18 -22 -20 -62 -4 -76 21 -17 63 -14 78 7 36 48 -36
115 -74 69z"/>
<path d="M6832 2688 c-10 -13 -15 -34 -13 -55 0 -7 14 -19 31 -28 28 -14 31
-14 50 5 24 24 26 53 4 74 -19 19 -58 21 -72 4z"/>
<path d="M7035 2402 c-42 -9 -55 -65 -20 -88 45 -29 95 9 76 59 -11 27 -26 35
-56 29z"/>
<path d="M7814 259 c-82 -14 -112 -104 -52 -160 l31 -30 298 3 297 3 26 28
c40 43 31 110 -19 143 -23 15 -59 17 -284 18 -142 1 -275 -2 -297 -5z"/>
</g>
</svg>
