<svg id="a" xmlns="http://www.w3.org/2000/svg" viewBox="0 0 340 366.36"><path d="M393.21,226.3c-19.12,0-21.98-15.23-21.98-24.3v-37.63c0-15.44,8.01-24.3,21.98-24.3,19.23,0,22.1,15.23,22.1,24.3v3.17h-11.83v-3.17c0-3.15,0-12.72-10.27-12.72s-10.27,9.57-10.27,12.72v37.63c0,3.15,0,12.72,10.27,12.72s10.27-9.57,10.27-12.72v-3.29h11.83v3.29c0,15.22-8.26,24.3-22.1,24.3Z" class="fill-black dark:fill-white"/><path d="M458.27,224.71l-2.44-16.49h-17.72l-2.44,16.49h-11.81l13.04-83.06h20.16l13.04,83.06h-11.81ZM439.91,197.24h14.11l-7.06-43.83-7.05,43.83Z" class="fill-black dark:fill-white"/><path d="M500.6,226.3c-19.12,0-21.98-15.23-21.98-24.3v-7.07h11.34v7.07c0,10.61,5.79,12.84,10.64,12.84,10.13,0,10.64-10.08,10.64-12.11,0-3.65-1.4-10.38-10.81-14.39-14.06-6.26-21.81-9.71-21.81-25.2s7.6-23.08,21.98-23.08c19.23,0,22.1,15.23,22.1,24.3v2.43h-11.46v-2.43c0-3.04-.77-12.96-10.64-12.96-3.37,0-5.99.92-7.78,2.73-2.93,2.95-2.88,7.52-2.86,9.47v.39c0,5.41,3.82,9.52,11.68,12.56,11.1,4.41,21.06,9.74,21.06,26.17,0,14.98-8.06,23.57-22.1,23.57Z" class="fill-black dark:fill-white"/><path d="M554.48,226.3c-19.12,0-21.98-15.23-21.98-24.3v-37.63c0-15.44,8.01-24.3,21.98-24.3,19.23,0,22.1,15.23,22.1,24.3v3.17h-11.83v-3.17c0-3.15,0-12.72-10.27-12.72s-10.27,9.57-10.27,12.72v37.63c0,3.15,0,12.72,10.27,12.72s10.27-9.57,10.27-12.72v-3.29h11.83v3.29c0,15.22-8.26,24.3-22.1,24.3Z" class="fill-black dark:fill-white"/><path d="M619.54,224.71l-2.44-16.49h-17.72l-2.44,16.49h-11.81l13.04-83.06h20.16l13.04,83.06h-11.81ZM601.18,197.24h14.11l-6.56-43.83h-.99l-6.56,43.83Z" class="fill-black dark:fill-white"/><path d="M660.17,224.71h-20.16v-83.06h20.15c14.99,0,23.94,8.67,23.94,23.2v36.78c0,11.16-6.08,23.09-23.15,23.09-.25,0-.51,0-.77,0ZM651.47,213.37h8.93c11.52,0,12.11-10.08,12.11-12.11v-36.04c0-2.87-.87-12.23-12.11-12.23h-8.93v60.38Z" class="fill-black dark:fill-white"/><polygon points="693.77 224.71 693.77 213.37 709.65 213.37 709.65 152.99 694.26 152.99 694.26 141.65 737.61 141.65 737.61 152.99 722.21 152.99 722.21 213.37 737.85 213.37 737.85 224.71 693.77 224.71" class="fill-black dark:fill-white"/><path d="M780.81,224.71l-2.44-16.49h-17.72l-2.44,16.49h-11.81l13.04-83.06h20.16l13.04,83.06h-11.81ZM762.45,197.24h14.11l-6.56-43.83h-.99l-6.56,43.83Z" class="fill-black dark:fill-white"/><path d="M823.14,226.3c-14.38.06-21.98-8.4-21.98-24.3v-7.81h11.34v7.81c0,8.68,3.58,13.08,10.64,13.08,10.64,0,10.64-10.12,10.64-13.45v-48.64h-28.83v-11.34h40.3v60.34c0,15.78-7.64,24.25-22.11,24.3Z" class="fill-black dark:fill-white"/><path d="M876.9,226.3c-19.13,0-21.98-15.23-21.98-24.3v-7.07h11.34v7.07c0,10.61,5.79,12.84,10.64,12.84,10.13,0,10.64-10.08,10.64-12.11,0-3.65-1.4-10.38-10.81-14.39-14.06-6.26-21.81-9.71-21.81-25.2s7.6-23.08,21.98-23.08c19.23,0,22.1,15.23,22.1,24.3v2.43h-11.46v-2.43c0-3.04-.77-12.96-10.64-12.96-3.37,0-5.99.92-7.78,2.73-2.93,2.95-2.88,7.52-2.86,9.47v.39c0,5.41,3.82,9.52,11.68,12.56,11.1,4.41,21.06,9.74,21.06,26.17,0,14.98-8.06,23.57-22.1,23.57Z" class="fill-black dark:fill-white"/><path d="M0,366.36V0h328.19v366.36H0ZM169.27,354.92h147.48V11.44H11.44v343.48h147.28v-128.45l-27.3,27.3-7.46-7.46,40.13-40.13,40.13,40.13-7.46,7.46-27.49-27.49v128.64Z" class="fill-black dark:fill-white"/><polygon points="164.09 90.42 131.42 123.09 123.96 115.62 164.09 75.49 204.23 115.62 196.76 123.09 164.09 90.42" class="fill-black dark:fill-white"/><polygon points="164.09 123.09 106.92 180.26 99.46 172.8 164.09 108.16 228.73 172.8 221.27 180.26 164.09 123.09" class="fill-black dark:fill-white"/><polygon points="164.09 155.76 82.41 237.44 74.95 229.98 164.09 140.84 253.23 229.98 245.77 237.44 164.09 155.76" class="fill-black dark:fill-white"/><polygon points="164.09 188.43 106.92 245.6 99.46 238.14 164.09 173.51 228.73 238.14 221.27 245.6 164.09 188.43" class="fill-black dark:fill-white"/></svg>