<svg viewBox="0 0 200 200" fill="none" xmlns="http://www.w3.org/2000/svg">
<path d="M100 0C155.229 0 200 44.7715 200 100C200 155.229 155.229 200 100 200C44.7715 200 0 155.228 0 100C1.61086e-06 44.7716 44.7715 0.000155396 100 0ZM81.8057 26.9258C86.1373 58.8782 104.026 50.5527 114.561 72.5762C114.534 72.5387 96.761 47.7854 67.5566 56.9082C67.5566 56.9082 78.209 79.8587 109.718 84.5479C109.718 84.5479 112.243 93.4297 113.004 94.9932C112.907 94.9413 64.4627 69.073 49.7432 118.866C38.7778 116.318 35.0997 128.533 47.7031 136.878C47.7031 136.878 49.8483 128.139 55.0703 125.545C55.0703 125.545 43.8635 138.371 57.041 153.73H104.339C105.482 151.788 110.54 141.566 98.0303 133.829C106.861 133.7 114.048 150.793 121.781 153.849H133.029C133.41 152.9 134.205 150.057 132.337 147.5C129.456 144.11 123.15 144.569 123.206 138.299C125.384 109.131 168.003 118.088 166.648 82.9844H166.65C166.65 82.9844 152.918 64.9735 135.658 63.9434C124.521 63.2689 121.823 64.7955 121.339 65.9326C120.648 60.0356 115.736 32.7156 81.8057 26.9258Z" class="fill-black dark:fill-white"/>
</svg>
