<svg width="380" height="263" viewBox="0 0 380 263" fill="none" xmlns="http://www.w3.org/2000/svg">
<g clip-path="url(#clip0_136_3096)">
<path d="M272.607 151.371L325 68.8696H363.89V151.151H379.19V175.504H363.89V196.741H334.325V175.504H272.607V151.371ZM334.984 101.552H333.989L303.285 150.116V151.112H334.946L334.984 101.552Z" fill="#BDA9ED"/>
<path opacity="0.3" d="M209.842 228.608C183.277 228.608 156.531 218.145 134.557 199.159C113.696 181.13 99.6374 157.436 95.0978 132.475C90.2478 106.027 96.3911 81.2723 112.377 62.7648C127.56 45.2015 149.883 35.5273 175.245 35.5273C201.823 35.5273 228.556 45.9774 250.53 64.9764C271.391 83.0053 285.449 106.686 289.989 131.66C294.839 158.109 288.696 182.863 272.723 201.358C257.539 218.895 235.204 228.608 209.842 228.608Z" fill="#32146D"/>
<path d="M209.235 215.403C186.02 215.403 162.675 206.207 143.275 189.536C124.962 173.629 112.649 152.935 108.64 131.091C104.501 108.497 109.662 87.4155 123.19 71.7663C136.033 56.906 155.032 48.7192 176.682 48.7192C199.884 48.7192 223.241 57.9148 242.641 74.5857C260.981 90.429 273.293 111.187 277.29 133.005C281.441 155.613 276.268 176.681 262.74 192.33C249.871 207.255 230.859 215.403 209.235 215.403Z" fill="#32146D"/>
<path d="M255.479 186.042C279.423 158.342 270.867 111.713 236.369 81.8926C201.871 52.0726 154.494 50.3541 130.55 78.0541C106.607 105.754 115.162 152.383 149.661 182.203C184.159 212.023 231.535 213.742 255.479 186.042Z" fill="#1B0137"/>
<mask id="mask0_136_3096" style="mask-type:luminance" maskUnits="userSpaceOnUse" x="117" y="58" width="153" height="149">
<path d="M255.608 186.499C279.552 158.799 270.996 112.17 236.498 82.3497C202 52.5297 154.623 50.8111 130.679 78.5112C106.735 106.211 115.291 152.84 149.79 182.66C184.288 212.48 231.664 214.199 255.608 186.499Z" fill="white"/>
</mask>
<g mask="url(#mask0_136_3096)">
<path opacity="0.7" d="M77.1741 180.806L84.2874 173.693C86.2992 171.687 89.0251 170.561 91.8663 170.563H108.951C113.353 170.556 117.711 169.68 121.774 167.987C125.837 166.294 129.527 163.816 132.632 160.695L142.81 150.517C145.474 147.85 148.637 145.735 152.119 144.292C155.601 142.85 159.334 142.108 163.103 142.11H173.061C181.944 142.107 190.462 138.576 196.742 132.294L199.523 129.513C204.905 124.132 212.204 121.108 219.815 121.107H231.093C235.491 121.107 239.847 120.241 243.911 118.556C247.974 116.872 251.665 114.403 254.773 111.29L263.271 102.806C265.282 100.796 266.412 98.0702 266.413 95.2271V74.1589C266.415 72.038 265.787 69.9642 264.61 68.1999C263.433 66.4357 261.759 65.0603 259.8 64.2476C257.841 63.4349 255.685 63.2214 253.605 63.6343C251.524 64.0472 249.613 65.0678 248.113 66.567C246.103 68.578 243.377 69.7086 240.534 69.7099H221.807C217.408 69.7091 213.052 70.5757 208.989 72.2601C204.925 73.9445 201.234 76.4136 198.126 79.5262L195.332 82.3068C192.668 84.9724 189.504 87.0868 186.023 88.5292C182.541 89.9717 178.809 90.7139 175.04 90.7135H165.094C156.213 90.7128 147.695 94.239 141.414 100.517L131.274 110.76C128.61 113.426 125.446 115.54 121.964 116.982C118.482 118.425 114.75 119.167 110.982 119.167H101.346C92.4658 119.169 83.949 122.695 77.6655 128.97L62.0551 144.58C61.0477 145.57 60.2457 146.749 59.6953 148.05C59.1448 149.351 58.8568 150.747 58.8477 152.159V173.228C58.8435 175.353 59.471 177.431 60.6504 179.199C61.8299 180.967 63.5081 182.344 65.4719 183.156C67.4358 183.969 69.5967 184.179 71.6802 183.76C73.7638 183.342 75.676 182.314 77.1741 180.806Z" fill="#0F0023"/>
<path opacity="0.7" d="M138.466 192.266L145.566 185.152C147.584 183.148 150.314 182.023 153.158 182.022H170.243C179.126 182.02 187.644 178.489 193.924 172.206L204.102 162.028C209.485 156.647 216.784 153.623 224.394 153.621H234.34C243.223 153.617 251.74 150.086 258.021 143.805L260.802 141.024C266.184 135.643 273.483 132.619 281.094 132.617H292.372C301.253 132.618 309.771 129.092 316.052 122.814L324.55 114.317C326.558 112.306 327.688 109.58 327.692 106.738V115.429C327.691 113.309 327.062 111.237 325.884 109.475C324.706 107.713 323.032 106.339 321.073 105.528C319.115 104.717 316.96 104.505 314.88 104.918C312.801 105.331 310.891 106.352 309.392 107.85C308.395 108.847 307.211 109.637 305.908 110.177C304.606 110.716 303.21 110.993 301.8 110.993H283.086C274.206 110.998 265.69 114.523 259.405 120.796L256.624 123.59C251.242 128.971 243.943 131.995 236.332 131.997H226.386C221.988 131.993 217.633 132.858 213.57 134.54C209.506 136.222 205.814 138.689 202.705 141.8L192.514 151.991C189.849 154.655 186.685 156.768 183.203 158.208C179.721 159.648 175.99 160.388 172.222 160.385H162.587C158.188 160.384 153.832 161.251 149.769 162.935C145.705 164.62 142.014 167.089 138.906 170.201L123.295 185.812C121.285 187.822 120.155 190.548 120.153 193.391V184.635C120.141 186.762 120.762 188.844 121.936 190.617C123.111 192.39 124.787 193.774 126.75 194.592C128.714 195.41 130.876 195.625 132.962 195.211C135.048 194.797 136.964 193.772 138.466 192.266Z" fill="#0F0023"/>
</g>
<path d="M146.793 113.037V112.454C145.246 112.454 143.762 111.84 142.669 110.746C141.575 109.652 140.96 108.169 140.96 106.622H140.326C140.326 107.389 140.175 108.148 139.881 108.857C139.587 109.565 139.156 110.209 138.613 110.751C138.07 111.292 137.426 111.722 136.717 112.014C136.007 112.307 135.248 112.456 134.48 112.454V113.037C135.248 113.035 136.007 113.184 136.717 113.477C137.426 113.769 138.07 114.199 138.613 114.74C139.156 115.282 139.587 115.926 139.881 116.634C140.175 117.343 140.326 118.102 140.326 118.869H140.908C140.908 118.099 141.061 117.336 141.357 116.625C141.654 115.914 142.088 115.269 142.635 114.726C143.182 114.184 143.831 113.756 144.545 113.466C145.259 113.175 146.023 113.03 146.793 113.037Z" fill="#32146D"/>
<!-- Stars -->
<g data-atropos-offset="-5">
<path d="M67.3564 19.6065V19.0246C65.806 19.0246 64.3191 18.4086 63.2228 17.3123C62.1265 16.216 61.5106 14.7291 61.5106 13.1787H60.9286C60.9303 13.9458 60.7807 14.7056 60.4883 15.4148C60.1959 16.124 59.7666 16.7685 59.2248 17.3115C58.683 17.8545 58.0394 18.2853 57.3308 18.5793C56.6223 18.8732 55.8628 19.0246 55.0957 19.0246V19.6065C56.6427 19.6065 58.1263 20.2211 59.2202 21.315C60.3141 22.4088 60.9286 23.8924 60.9286 25.4394H61.5106C61.5106 24.6723 61.6619 23.9128 61.9558 23.2043C62.2498 22.4957 62.6806 21.8522 63.2236 21.3104C63.7666 20.7686 64.4111 20.3392 65.1203 20.0468C65.8294 19.7544 66.5893 19.6048 67.3564 19.6065Z" fill="#BDA9ED"/>
<path d="M128.686 231.48V230.898C127.139 230.898 125.656 230.283 124.562 229.189C123.468 228.096 122.853 226.612 122.853 225.065H122.22C122.22 226.612 121.605 228.096 120.511 229.189C119.417 230.283 117.934 230.898 116.387 230.898V231.48C117.154 231.48 117.913 231.631 118.622 231.925C119.33 232.219 119.974 232.65 120.516 233.193C121.058 233.736 121.487 234.38 121.779 235.09C122.072 235.799 122.221 236.559 122.22 237.326H122.802C122.8 236.554 122.951 235.79 123.247 235.077C123.542 234.365 123.976 233.718 124.524 233.174C125.071 232.631 125.721 232.201 126.435 231.91C127.15 231.619 127.915 231.473 128.686 231.48Z" fill="#871E64"/>
<path d="M291.386 40.986V40.4169C289.839 40.4169 288.356 39.8024 287.262 38.7085C286.168 37.6146 285.554 36.131 285.554 34.584H284.972C284.972 36.131 284.357 37.6146 283.263 38.7085C282.169 39.8024 280.686 40.4169 279.139 40.4169V40.9989C279.906 40.9989 280.665 41.1502 281.374 41.4441C282.082 41.7381 282.726 42.1689 283.268 42.7119C283.81 43.2549 284.239 43.8994 284.531 44.6086C284.824 45.3178 284.973 46.0776 284.972 46.8447H285.554C285.55 46.0765 285.699 45.3153 285.99 44.6046C286.282 43.894 286.711 43.2479 287.253 42.7035C287.795 42.1591 288.439 41.7272 289.148 41.4324C289.858 41.1377 290.618 40.986 291.386 40.986Z" fill="#871E64"/>
</g>
<path d="M244.399 142.214C245.156 142.214 245.77 141.6 245.77 140.843C245.77 140.086 245.156 139.472 244.399 139.472C243.642 139.472 243.028 140.086 243.028 140.843C243.028 141.6 243.642 142.214 244.399 142.214Z" fill="#BDA9ED"/>
<path d="M200.814 95.3571C201.571 95.3571 202.185 94.7433 202.185 93.9862C202.185 93.229 201.571 92.6152 200.814 92.6152C200.057 92.6152 199.443 93.229 199.443 93.9862C199.443 94.7433 200.057 95.3571 200.814 95.3571Z" fill="#BDA9ED"/>
<mask id="mask1_136_3096" style="mask-type:luminance" maskUnits="userSpaceOnUse" x="116" y="58" width="153" height="148">
<path d="M255.267 185.823C279.211 158.123 270.655 111.493 236.157 81.6734C201.659 51.8534 154.282 50.1348 130.338 77.8349C106.395 105.535 114.951 152.164 149.449 181.984C183.947 211.804 231.323 213.523 255.267 185.823Z" fill="white"/>
</mask>
<g mask="url(#mask1_136_3096)">
<path d="M184.804 208.355C210.932 208.355 232.114 187.174 232.114 161.045C232.114 134.917 210.932 113.735 184.804 113.735C158.675 113.735 137.494 134.917 137.494 161.045C137.494 187.174 158.675 208.355 184.804 208.355Z" fill="#57195D"/>
<path d="M149.276 161.045C149.277 149.524 153.481 138.399 161.101 129.758C168.721 121.117 179.232 115.553 190.662 114.11C188.71 113.867 186.745 113.742 184.778 113.735C178.565 113.735 172.413 114.959 166.673 117.337C160.933 119.714 155.718 123.199 151.325 127.592C146.931 131.985 143.447 137.201 141.069 142.94C138.691 148.68 137.468 154.832 137.468 161.045C137.468 167.258 138.691 173.41 141.069 179.15C143.447 184.89 146.931 190.105 151.325 194.498C155.718 198.891 160.933 202.376 166.673 204.754C172.413 207.131 178.565 208.355 184.778 208.355C186.745 208.348 188.71 208.223 190.662 207.98C179.231 206.54 168.718 200.977 161.098 192.335C153.478 183.693 149.274 172.567 149.276 161.045Z" fill="#3E1244"/>
<mask id="mask2_136_3096" style="mask-type:luminance" maskUnits="userSpaceOnUse" x="137" y="113" width="96" height="96">
<path d="M184.802 208.355C210.931 208.355 232.112 187.174 232.112 161.045C232.112 134.917 210.931 113.735 184.802 113.735C158.674 113.735 137.492 134.917 137.492 161.045C137.492 187.174 158.674 208.355 184.802 208.355Z" fill="white"/>
</mask>
<g mask="url(#mask2_136_3096)">
<path d="M233.42 132.799H140.067V140.093H233.42V132.799Z" fill="#871E64"/>
<path d="M233.42 181.583H140.067V188.877H233.42V181.583Z" fill="#871E64"/>
<path d="M233.419 161.044H131.014V174.029H233.419V161.044Z" fill="#871E64"/>
<path d="M169.218 144.866H165.558C162.315 144.866 159.687 147.495 159.687 150.737C159.687 153.98 162.315 156.609 165.558 156.609H169.218C172.461 156.609 175.09 153.98 175.09 150.737C175.09 147.495 172.461 144.866 169.218 144.866Z" fill="#871E64"/>
</g>
<mask id="mask3_136_3096" style="mask-type:luminance" maskUnits="userSpaceOnUse" x="133" y="94" width="104" height="134">
<path d="M208.653 120.253C207.404 119.472 206.108 118.768 204.773 118.145L213.516 94.4121H231.481L236.059 102.638L235.749 124.12L188.827 179.112L156.688 222.219L143.133 227.094L133.86 225.879L137.21 214.148L146.509 196.624L151.23 194.49H151.398C151.398 194.49 153.609 196.637 153.984 196.921L151.566 207.901L165.715 189.148L190.599 148.525L208.705 125.775L208.653 120.253Z" fill="white"/>
</mask>
<g mask="url(#mask3_136_3096)">
<path d="M190.96 165.378C214.687 132.274 231.134 103.441 227.697 100.978C224.26 98.5145 202.24 123.354 178.514 156.457C154.788 189.561 138.34 218.394 141.777 220.858C145.214 223.321 167.234 198.482 190.96 165.378Z" stroke="#FF8286" stroke-width="2.56078" stroke-miterlimit="10"/>
</g>
</g>
<!-- First 4 -->
<path d="M0 151.371L52.3797 68.8696H91.27V151.151H106.57V175.504H91.2829V196.741H61.7563V175.504H0V151.371ZM62.3641 101.552H61.4329L30.7682 150.116V151.112H62.4159L62.3641 101.552Z" fill="#BDA9ED"/>
<path opacity="0.6" d="M215.339 197.076C195.939 196.572 175.181 188.683 157.695 173.577C150.216 167.13 143.727 159.617 138.437 151.28C137.765 154.478 137.427 157.737 137.429 161.006C137.431 164.419 137.799 167.823 138.528 171.158C141.845 175.025 145.446 178.639 149.301 181.97C165.222 195.731 183.885 203.504 201.72 205.16C206.679 203.245 211.282 200.513 215.339 197.076Z" fill="#1B0137"/>
<!-- Headphones -->
<g data-atropos-offset="3">
  <path d="M157.747 21.0167C142.085 2.59971 119.258 -3.55653 106.764 7.4238C104.686 9.23438 102.977 11.4303 101.733 13.8904C114.473 4.68195 136.136 10.9934 151.19 28.6861C154.333 32.365 157.037 36.3971 159.248 40.701L168.107 38.1144C165.628 31.8658 162.132 26.071 157.76 20.965L157.747 21.0167Z" fill="#57195D"/>
  <path d="M155.638 34.5575C156.961 36.5318 158.166 38.5832 159.246 40.7008L167.898 38.1141C167.049 35.9421 166.064 33.8255 164.95 31.7769L155.638 34.5058V34.5575Z" fill="#3E1244"/>
  <path d="M184.61 55.936C184.105 47.801 179.436 41.4637 174.263 41.7741C169.09 42.0845 165.21 48.9521 165.753 57.0871C166.296 65.2221 170.862 71.5724 176.1 71.3137C181.337 71.055 185.101 64.1357 184.61 55.936Z" fill="#FF8286"/>
  <path d="M162.17 76.3576L170.577 76.5L165.533 71.3267L162.17 76.3576Z" fill="#57195D"/>
  <path d="M182.062 55.9361C181.403 45.0204 175.22 36.5362 168.262 36.9501C161.304 37.3639 156.183 46.5595 156.855 57.4622C157.528 68.3649 163.697 76.862 170.668 76.4482C177.639 76.0343 182.735 66.8776 182.062 55.9361Z" fill="#57195D"/>
  <path d="M159.932 48.1765L179.242 45.0725C176.655 39.8992 172.607 36.7177 168.261 36.9893C167.99 36.9893 159.208 37.9722 159.208 37.9722L161.795 40.339L159.932 48.1765Z" fill="#57195D"/>
  <path d="M174.444 56.6477C173.565 45.9261 167.176 37.7005 160.218 38.2825C153.26 38.8645 148.242 48.0083 149.134 58.73C150.026 69.4516 156.403 77.6772 163.361 77.0952C170.319 76.5132 175.337 67.3565 174.444 56.6477Z" fill="#871E64"/>
  <path d="M166.193 56.7771C165.779 51.6814 162.74 47.7237 159.403 48.06C156.066 48.3962 153.725 52.6772 154.139 57.7729C154.553 62.8686 157.592 66.8261 160.929 66.4899C164.266 66.1536 166.607 61.8728 166.193 56.7771Z" fill="#3D212F"/>
  <path d="M166.193 56.7771C165.779 51.6814 162.74 47.7237 159.403 48.06C156.066 48.3962 153.725 52.6772 154.139 57.7729C154.553 62.8686 157.592 66.8261 160.929 66.4899C164.266 66.1536 166.607 61.8728 166.193 56.7771Z" fill="#1B0137"/>
  <path opacity="0.7" d="M166.193 57.0227C166.452 60.9803 165.042 64.4334 162.83 65.8302C160.722 64.4205 159.131 61.3295 158.95 57.6694C158.692 53.7118 160.101 50.2715 162.313 48.8618C164.382 50.2845 165.973 53.3497 166.193 57.0227Z" fill="#0F0023"/>
  <path d="M149.081 58.1478C160.514 60.4111 168.481 67.5503 166.826 74.1074C165.17 80.6646 154.617 84.1307 143.184 81.8674C131.751 79.604 123.784 72.4649 125.439 65.9078C127.095 59.3506 137.648 55.9362 149.081 58.1478Z" fill="#57195D"/>
  <path d="M165.532 83.1999L166.981 73.3188L160.424 74.0043L165.532 83.1999Z" fill="#57195D"/>
  <path d="M125.439 65.9079L122.853 75.1293L126.59 72.2064C129.177 76.3839 134.958 80.0569 142.343 81.6994L146.029 57.6823C135.812 56.5313 126.888 59.9457 125.336 65.9079H125.439Z" fill="#57195D"/>
  <path d="M165.454 83.8205C166.631 77.1858 157.991 70.1113 146.158 68.0161C134.324 65.921 123.796 69.594 122.619 76.2158C121.442 82.8376 130.081 89.925 141.902 92.0331C153.723 94.1412 164.277 90.4424 165.454 83.8205Z" fill="#3E1244"/>
  <path d="M159.002 72.9561L144.129 92.3559C154.682 93.6493 163.865 90.2608 165.352 84.2856C166.335 80.341 163.762 76.1764 159.002 72.9561Z" fill="#3E1244"/>
  <path d="M161.381 86.8082C162.287 81.9841 155.471 76.6685 146.159 74.9355C136.847 73.2024 128.57 75.6986 127.677 80.5227C126.785 85.3468 133.588 90.6623 142.9 92.3954C152.212 94.1284 160.489 91.6323 161.381 86.8082Z" fill="#3E1244"/>
  <path d="M158.652 85.5792C159.454 81.2595 153.349 76.526 145.007 74.9352C136.665 73.3444 129.242 75.6077 128.44 79.9403C127.638 84.273 133.743 88.9936 142.084 90.5844C150.426 92.1752 157.837 89.8989 158.652 85.5792Z" fill="#FF8286"/>
  <path d="M127.495 85.3855L128.336 79.6689L132.306 81.1175L127.495 85.3855Z" fill="#FF8286"/>
  <path d="M158.678 85.2817L157.605 91.5026L154.501 87.8425L158.678 85.2817Z" fill="#FF8286"/>
  <path d="M157.656 91.257C158.458 86.9373 152.353 82.2037 144.011 80.6129C135.669 79.0221 128.259 81.2984 127.444 85.6181C126.629 89.9378 132.747 94.6713 141.089 96.2621C149.43 97.8529 156.854 95.5767 157.656 91.257Z" fill="#57195D"/>
  <path d="M150.025 89.8341C150.426 87.6872 147.438 85.3333 143.274 84.5703C139.109 83.8072 135.514 84.9065 135.087 87.0405C134.66 89.1745 137.674 91.5283 141.825 92.3043C145.977 93.0803 149.624 91.9681 150.025 89.8341Z" fill="#871E64"/>
  <path d="M127.755 83.7167C128.324 81.4146 130.975 79.8368 134.467 79.0866C125.244 75.4067 117.082 69.4859 110.722 61.8595C98.6939 47.7105 94.0898 30.4963 97.6723 17.7441C88.1793 29.5134 91.4643 51.1507 105.962 68.1838C111.571 74.9317 118.65 80.3069 126.656 83.8978L127.626 84.2728C127.648 84.0853 127.682 83.8995 127.729 83.7167H127.755Z" fill="#57195D"/>
  <path d="M97.6466 17.7441C88.9037 28.5822 91.0118 47.7752 102.716 64.0582L105.691 54.0737C98.345 41.9294 94.7754 28.039 97.6466 17.7441Z" fill="#57195D"/>
  <path d="M95.292 21.3793L99.5729 12.8174L98.3701 21.3016L95.292 21.3793Z" fill="#57195D"/>
  <path d="M106.763 7.35918C119.257 -3.54355 142.084 2.53509 157.746 20.952C161.872 25.7723 165.223 31.2044 167.679 37.054H167.912H168.106H168.365C168.687 37.0281 169.012 37.0281 169.335 37.054C166.773 30.8131 163.227 25.0232 158.833 19.9045C142.382 0.504577 118.274 -5.71635 104.992 5.88477C91.7092 17.4859 94.27 42.5635 110.721 61.9116C117.016 69.4915 125.102 75.3815 134.247 79.0482L134.466 79.1387L134.725 76.8237C126.146 73.1996 118.539 67.6085 112.519 60.502C96.8566 42.0333 94.2829 18.2619 106.763 7.35918Z" fill="#FF8286"/>
  <path d="M106.764 7.35893C104.69 9.17308 102.982 11.3682 101.733 13.8256C108.355 9.04025 117.37 8.45825 126.63 11.4717L141.167 7.20374C128.596 0.387915 115.287 -0.0776882 106.764 7.35893Z" fill="#57195D"/>
  <path d="M129.565 76.9268C132.966 78.6024 136.539 79.9033 140.222 80.8067L127.496 85.3334L127.651 84.2211L125.775 81.2206L129.565 76.9268Z" fill="#57195D"/>
</g>
<!-- Phone -->
<g data-atropos-offset="4">
  <path d="M306.101 172.824L272.078 161.77C267.799 160.379 263.202 162.721 261.811 167.001L237.768 240.999C236.377 245.279 238.719 249.876 242.999 251.266L277.022 262.321C281.301 263.712 285.898 261.369 287.289 257.09L311.332 183.091C312.723 178.812 310.381 174.215 306.101 172.824Z" fill="#871E64"/>
  <path d="M302.162 171.539L268.14 160.484C263.86 159.094 259.263 161.436 257.873 165.716L233.829 239.714C232.439 243.994 234.781 248.59 239.061 249.981L273.083 261.035C277.363 262.426 281.96 260.084 283.35 255.804L307.394 181.806C308.784 177.526 306.442 172.929 302.162 171.539Z" fill="#32146D"/>
  <path d="M263.955 240.042C268.433 240.042 272.064 236.411 272.064 231.932C272.064 227.454 268.433 223.823 263.955 223.823C259.476 223.823 255.846 227.454 255.846 231.932C255.846 236.411 259.476 240.042 263.955 240.042Z" fill="#BDA9ED"/>
  <path d="M249.818 230.251C251.425 230.251 252.728 228.948 252.728 227.341C252.728 225.734 251.425 224.431 249.818 224.431C248.211 224.431 246.908 225.734 246.908 227.341C246.908 228.948 248.211 230.251 249.818 230.251Z" fill="#BDA9ED"/>
  <path d="M278.401 239.537C280.008 239.537 281.311 238.234 281.311 236.627C281.311 235.02 280.008 233.717 278.401 233.717C276.794 233.717 275.491 235.02 275.491 236.627C275.491 238.234 276.794 239.537 278.401 239.537Z" fill="#BDA9ED"/>
  <path d="M299.672 179.478L265.478 168.367C264.085 167.915 262.589 168.677 262.137 170.069L251.026 204.264C250.574 205.657 251.336 207.152 252.728 207.605L286.923 218.716C288.316 219.168 289.812 218.406 290.264 217.013L301.375 182.819C301.827 181.426 301.065 179.93 299.672 179.478Z" fill="#871E64"/>
  <path d="M277.111 250.61L241.391 239.004C240.922 238.852 240.419 239.106 240.268 239.571C240.117 240.036 240.374 240.537 240.843 240.689L276.563 252.296C277.032 252.448 277.534 252.194 277.686 251.729C277.837 251.263 277.579 250.763 277.111 250.61Z" fill="#BDA9ED"/>
  <path d="M265.289 246.761L241.39 238.996C240.921 238.844 240.418 239.097 240.267 239.563C240.116 240.028 240.373 240.529 240.842 240.681L264.742 248.446C265.21 248.599 265.713 248.345 265.864 247.88C266.015 247.414 265.758 246.914 265.289 246.761Z" fill="#871E64"/>
  <path d="M264.136 229.242L266.722 232.488C266.77 232.547 266.803 232.616 266.817 232.691C266.831 232.765 266.826 232.842 266.803 232.914C266.78 232.986 266.739 233.051 266.684 233.103C266.63 233.155 266.563 233.193 266.489 233.212L262.493 234.325C262.413 234.348 262.329 234.349 262.248 234.328C262.168 234.307 262.095 234.263 262.037 234.203C261.98 234.143 261.94 234.068 261.923 233.987C261.905 233.906 261.91 233.821 261.937 233.743L263.347 229.384C263.371 229.305 263.417 229.235 263.479 229.18C263.541 229.126 263.617 229.089 263.698 229.075C263.779 229.06 263.863 229.068 263.94 229.097C264.017 229.127 264.085 229.177 264.136 229.242Z" fill="#32146D"/>
  <mask id="mask4_136_3096" style="mask-type:luminance" maskUnits="userSpaceOnUse" x="233" y="160" width="75" height="102">
    <path d="M302.356 171.61L268.333 160.555C264.053 159.164 259.457 161.507 258.066 165.786L234.023 239.785C232.632 244.064 234.974 248.661 239.254 250.052L273.276 261.106C277.556 262.497 282.153 260.155 283.543 255.875L307.587 181.877C308.978 177.597 306.635 173 302.356 171.61Z" fill="white"/>
  </mask>
  <g mask="url(#mask4_136_3096)">
    <path opacity="0.2" d="M252.407 183.239L293.276 225.945L298.889 208.679L258.02 165.96L252.407 183.239Z" fill="#BDA9ED"/>
    <path opacity="0.2" d="M260.297 158.963L301.166 201.682L306.779 184.403L265.91 141.697L260.297 158.963Z" fill="#BDA9ED"/>
  </g>
  <path d="M262.067 170.331L256.454 187.61L285.942 218.43L286.938 218.753C287.269 218.869 287.619 218.917 287.969 218.893C288.319 218.869 288.66 218.775 288.972 218.615C289.284 218.455 289.561 218.234 289.785 217.964C290.008 217.694 290.175 217.382 290.275 217.046L294.452 204.113L262.067 170.331Z" fill="#FF8286"/>
  <path d="M299.689 179.5L270.848 170.137L296.714 197.18L301.37 182.837C301.587 182.172 301.532 181.447 301.217 180.822C300.902 180.197 300.353 179.722 299.689 179.5Z" fill="#FF8286"/>
</g>
</g>
<defs>
<clipPath id="clip0_136_3096">
<rect width="379.19" height="262.739" fill="white"/>
</clipPath>
</defs>
</svg>
