<svg class="w-full" width="398" height="47" viewBox="0 0 398 47" fill="none" xmlns="http://www.w3.org/2000/svg">
<circle cx="1" cy="1" r="1" fill="#C5C5D1"/>
<circle cx="10" cy="1" r="1" fill="#C5C5D1"/>
<circle cx="19" cy="1" r="1" fill="#C5C5D1"/>
<circle cx="28" cy="1" r="1" fill="#C5C5D1"/>
<circle cx="37" cy="1" r="1" fill="#C5C5D1"/>
<circle cx="46" cy="1" r="1" fill="#C5C5D1"/>
<circle cx="55" cy="1" r="1" fill="#C5C5D1"/>
<circle cx="64" cy="1" r="1" fill="#C5C5D1"/>
<circle cx="82" cy="1" r="1" fill="#C5C5D1"/>
<circle cx="1" cy="10" r="1" fill="#C5C5D1"/>
<circle cx="10" cy="10" r="1" fill="#C5C5D1"/>
<circle cx="28" cy="10" r="1" fill="#C5C5D1"/>
<circle cx="37" cy="10" r="1" fill="#C5C5D1"/>
<circle cx="46" cy="10" r="1" fill="#C5C5D1"/>
<circle cx="64" cy="10" r="1" fill="#C5C5D1"/>
<circle cx="73" cy="10" r="1" fill="#C5C5D1"/>
<circle cx="82" cy="10" r="1" fill="#C5C5D1"/>
<circle cx="1" cy="19" r="1" fill="#C5C5D1"/>
<circle cx="10" cy="19" r="1" fill="#C5C5D1"/>
<circle cx="19" cy="19" r="1" fill="#C5C5D1"/>
<circle cx="28" cy="19" r="1" fill="#C5C5D1"/>
<circle cx="37" cy="19" r="1" fill="#C5C5D1"/>
<circle cx="46" cy="19" r="1" fill="#C5C5D1"/>
<circle cx="55" cy="19" r="1" fill="#C5C5D1"/>
<circle cx="64" cy="19" r="1" fill="#C5C5D1"/>
<circle cx="73" cy="19" r="1" fill="#C5C5D1"/>
<circle cx="82" cy="19" r="1" fill="#C5C5D1"/>
<circle cx="1" cy="28" r="1" fill="#C5C5D1"/>
<circle cx="10" cy="28" r="1" fill="#C5C5D1"/>
<circle cx="19" cy="28" r="1" fill="#C5C5D1"/>
<circle cx="28" cy="28" r="1" fill="#C5C5D1"/>
<circle cx="37" cy="28" r="1" fill="#C5C5D1"/>
<circle cx="46" cy="28" r="1" fill="#C5C5D1"/>
<circle cx="55" cy="28" r="1" fill="#C5C5D1"/>
<circle cx="64" cy="28" r="1" fill="#C5C5D1"/>
<circle cx="73" cy="28" r="1" fill="#C5C5D1"/>
<circle cx="82" cy="28" r="1" fill="#C5C5D1"/>
<circle cx="82" cy="1" r="1" fill="#C5C5D1"/>
<circle cx="91" cy="1" r="1" fill="#C5C5D1"/>
<circle cx="100" cy="1" r="1" fill="#C5C5D1"/>
<circle cx="109" cy="1" r="1" fill="#C5C5D1"/>
<circle cx="118" cy="1" r="1" fill="#C5C5D1"/>
<circle cx="127" cy="1" r="1" fill="#C5C5D1"/>
<circle cx="136" cy="1" r="1" fill="#C5C5D1"/>
<circle cx="145" cy="1" r="1" fill="#C5C5D1"/>
<circle cx="154" cy="1" r="1" fill="#C5C5D1"/>
<circle cx="163" cy="1" r="1" fill="#C5C5D1"/>
<circle cx="82" cy="10" r="1" fill="#C5C5D1"/>
<circle cx="118" cy="10" r="1" fill="#C5C5D1"/>
<circle cx="127" cy="10" r="1" fill="#C5C5D1"/>
<circle cx="136" cy="10" r="1" fill="#C5C5D1"/>
<circle cx="145" cy="10" r="1" fill="#C5C5D1"/>
<circle cx="154" cy="10" r="1" fill="#C5C5D1"/>
<circle cx="163" cy="10" r="1" fill="#C5C5D1"/>
<circle cx="82" cy="19" r="1" fill="#C5C5D1"/>
<circle cx="91" cy="19" r="1" fill="#C5C5D1"/>
<circle cx="100" cy="19" r="1" fill="#C5C5D1"/>
<circle cx="109" cy="19" r="1" fill="#C5C5D1"/>
<circle cx="118" cy="19" r="1" fill="#C5C5D1"/>
<circle cx="127" cy="19" r="1" fill="#C5C5D1"/>
<circle cx="136" cy="19" r="1" fill="#C5C5D1"/>
<circle cx="145" cy="19" r="1" fill="#C5C5D1"/>
<circle cx="154" cy="19" r="1" fill="#C5C5D1"/>
<circle cx="163" cy="19" r="1" fill="#C5C5D1"/>
<circle cx="82" cy="28" r="1" fill="#C5C5D1"/>
<circle cx="91" cy="28" r="1" fill="#C5C5D1"/>
<circle cx="100" cy="28" r="1" fill="#C5C5D1"/>
<circle cx="109" cy="28" r="1" fill="#C5C5D1"/>
<circle cx="118" cy="28" r="1" fill="#C5C5D1"/>
<circle cx="127" cy="28" r="1" fill="#C5C5D1"/>
<circle cx="136" cy="28" r="1" fill="#C5C5D1"/>
<circle cx="145" cy="28" r="1" fill="#C5C5D1"/>
<circle cx="154" cy="28" r="1" fill="#C5C5D1"/>
<circle cx="163" cy="28" r="1" fill="#C5C5D1"/>
<circle cx="163" cy="1" r="1" fill="#C5C5D1"/>
<circle cx="172" cy="1" r="1" fill="#C5C5D1"/>
<circle cx="181" cy="1" r="1" fill="#C5C5D1"/>
<circle cx="190" cy="1" r="1" fill="#C5C5D1"/>
<circle cx="199" cy="1" r="1" fill="#C5C5D1"/>
<circle cx="208" cy="1" r="1" fill="#C5C5D1"/>
<circle cx="217" cy="1" r="1" fill="#C5C5D1"/>
<circle cx="226" cy="1" r="1" fill="#C5C5D1"/>
<circle cx="235" cy="1" r="1" fill="#C5C5D1"/>
<circle cx="244" cy="1" r="1" fill="#C5C5D1"/>
<circle cx="172" cy="10" r="1" fill="#C5C5D1"/>
<circle cx="181" cy="10" r="1" fill="#C5C5D1"/>
<circle cx="199" cy="10" r="1" fill="#C5C5D1"/>
<circle cx="208" cy="10" r="1" fill="#C5C5D1"/>
<circle cx="217" cy="10" r="1" fill="#C5C5D1"/>
<circle cx="226" cy="10" r="1" fill="#C5C5D1"/>
<circle cx="235" cy="10" r="1" fill="#C5C5D1"/>
<circle cx="244" cy="10" r="1" fill="#C5C5D1"/>
<circle cx="163" cy="19" r="1" fill="#C5C5D1"/>
<circle cx="172" cy="19" r="1" fill="#C5C5D1"/>
<circle cx="181" cy="19" r="1" fill="#C5C5D1"/>
<circle cx="190" cy="19" r="1" fill="#C5C5D1"/>
<circle cx="199" cy="19" r="1" fill="#C5C5D1"/>
<circle cx="208" cy="19" r="1" fill="#C5C5D1"/>
<circle cx="217" cy="19" r="1" fill="#C5C5D1"/>
<circle cx="226" cy="19" r="1" fill="#C5C5D1"/>
<circle cx="235" cy="19" r="1" fill="#C5C5D1"/>
<circle cx="244" cy="19" r="1" fill="#C5C5D1"/>
<circle cx="163" cy="28" r="1" fill="#C5C5D1"/>
<circle cx="172" cy="28" r="1" fill="#C5C5D1"/>
<circle cx="181" cy="28" r="1" fill="#C5C5D1"/>
<circle cx="190" cy="28" r="1" fill="#C5C5D1"/>
<circle cx="199" cy="28" r="1" fill="#C5C5D1"/>
<circle cx="208" cy="28" r="1" fill="#C5C5D1"/>
<circle cx="217" cy="28" r="1" fill="#C5C5D1"/>
<circle cx="226" cy="28" r="1" fill="#C5C5D1"/>
<circle cx="235" cy="28" r="1" fill="#C5C5D1"/>
<circle cx="244" cy="28" r="1" fill="#C5C5D1"/>
<circle cx="244" cy="1" r="1" fill="#C5C5D1"/>
<circle cx="253" cy="1" r="1" fill="#C5C5D1"/>
<circle cx="262" cy="1" r="1" fill="#C5C5D1"/>
<circle cx="271" cy="1" r="1" fill="#C5C5D1"/>
<circle cx="280" cy="1" r="1" fill="#C5C5D1"/>
<circle cx="289" cy="1" r="1" fill="#C5C5D1"/>
<circle cx="298" cy="1" r="1" fill="#C5C5D1"/>
<circle cx="307" cy="1" r="1" fill="#C5C5D1"/>
<circle cx="316" cy="1" r="1" fill="#C5C5D1"/>
<circle cx="325" cy="1" r="1" fill="#C5C5D1"/>
<circle cx="244" cy="10" r="1" fill="#C5C5D1"/>
<circle cx="253" cy="10" r="1" fill="#C5C5D1"/>
<circle cx="262" cy="10" r="1" fill="#C5C5D1"/>
<circle cx="271" cy="10" r="1" fill="#C5C5D1"/>
<circle cx="280" cy="10" r="1" fill="#C5C5D1"/>
<circle cx="289" cy="10" r="1" fill="#C5C5D1"/>
<circle cx="298" cy="10" r="1" fill="#C5C5D1"/>
<circle cx="307" cy="10" r="1" fill="#C5C5D1"/>
<circle cx="316" cy="10" r="1" fill="#C5C5D1"/>
<circle cx="325" cy="10" r="1" fill="#C5C5D1"/>
<circle cx="244" cy="19" r="1" fill="#C5C5D1"/>
<circle cx="253" cy="19" r="1" fill="#C5C5D1"/>
<circle cx="262" cy="19" r="1" fill="#C5C5D1"/>
<circle cx="271" cy="19" r="1" fill="#C5C5D1"/>
<circle cx="280" cy="19" r="1" fill="#C5C5D1"/>
<circle cx="289" cy="19" r="1" fill="#C5C5D1"/>
<circle cx="298" cy="19" r="1" fill="#C5C5D1"/>
<circle cx="307" cy="19" r="1" fill="#C5C5D1"/>
<circle cx="316" cy="19" r="1" fill="#C5C5D1"/>
<circle cx="325" cy="19" r="1" fill="#C5C5D1"/>
<circle cx="244" cy="28" r="1" fill="#C5C5D1"/>
<circle cx="253" cy="28" r="1" fill="#C5C5D1"/>
<circle cx="262" cy="28" r="1" fill="#C5C5D1"/>
<circle cx="271" cy="28" r="1" fill="#C5C5D1"/>
<circle cx="280" cy="28" r="1" fill="#C5C5D1"/>
<circle cx="289" cy="28" r="1" fill="#C5C5D1"/>
<circle cx="298" cy="28" r="1" fill="#C5C5D1"/>
<circle cx="307" cy="28" r="1" fill="#C5C5D1"/>
<circle cx="316" cy="28" r="1" fill="#C5C5D1"/>
<circle cx="325" cy="28" r="1" fill="#C5C5D1"/>
<circle cx="325" cy="1" r="1" fill="#C5C5D1"/>
<circle cx="334" cy="1" r="1" fill="#C5C5D1"/>
<circle cx="343" cy="1" r="1" fill="#C5C5D1"/>
<circle cx="352" cy="1" r="1" fill="#C5C5D1"/>
<circle cx="361" cy="1" r="1" fill="#C5C5D1"/>
<circle cx="370" cy="1" r="1" fill="#C5C5D1"/>
<circle cx="379" cy="1" r="1" fill="#C5C5D1"/>
<circle cx="388" cy="1" r="1" fill="#C5C5D1"/>
<circle cx="397" cy="1" r="1" fill="#C5C5D1"/>
<circle cx="325" cy="10" r="1" fill="#C5C5D1"/>
<circle cx="334" cy="10" r="1" fill="#C5C5D1"/>
<circle cx="352" cy="10" r="1" fill="#C5C5D1"/>
<circle cx="370" cy="10" r="1" fill="#C5C5D1"/>
<circle cx="379" cy="10" r="1" fill="#C5C5D1"/>
<circle cx="388" cy="10" r="1" fill="#C5C5D1"/>
<circle cx="397" cy="10" r="1" fill="#C5C5D1"/>
<circle cx="325" cy="19" r="1" fill="#C5C5D1"/>
<circle cx="334" cy="19" r="1" fill="#C5C5D1"/>
<circle cx="343" cy="19" r="1" fill="#C5C5D1"/>
<circle cx="352" cy="19" r="1" fill="#C5C5D1"/>
<circle cx="361" cy="19" r="1" fill="#C5C5D1"/>
<circle cx="370" cy="19" r="1" fill="#C5C5D1"/>
<circle cx="379" cy="19" r="1" fill="#C5C5D1"/>
<circle cx="388" cy="19" r="1" fill="#C5C5D1"/>
<circle cx="397" cy="19" r="1" fill="#C5C5D1"/>
<circle cx="325" cy="28" r="1" fill="#C5C5D1"/>
<circle cx="334" cy="28" r="1" fill="#C5C5D1"/>
<circle cx="343" cy="28" r="1" fill="#C5C5D1"/>
<circle cx="352" cy="28" r="1" fill="#C5C5D1"/>
<circle cx="361" cy="28" r="1" fill="#C5C5D1"/>
<circle cx="370" cy="28" r="1" fill="#C5C5D1"/>
<circle cx="379" cy="28" r="1" fill="#C5C5D1"/>
<circle cx="388" cy="28" r="1" fill="#C5C5D1"/>
<circle cx="397" cy="28" r="1" fill="#C5C5D1"/>
<circle cx="1" cy="19" r="1" fill="#C5C5D1"/>
<circle cx="10" cy="19" r="1" fill="#C5C5D1"/>
<circle cx="19" cy="19" r="1" fill="#C5C5D1"/>
<circle cx="28" cy="19" r="1" fill="#C5C5D1"/>
<circle cx="55" cy="19" r="1" fill="#C5C5D1"/>
<circle cx="64" cy="19" r="1" fill="#C5C5D1"/>
<circle cx="73" cy="19" r="1" fill="#C5C5D1"/>
<circle cx="82" cy="19" r="1" fill="#C5C5D1"/>
<circle cx="1" cy="28" r="1" fill="#C5C5D1"/>
<circle cx="10" cy="28" r="1" fill="#C5C5D1"/>
<circle cx="19" cy="28" r="1" fill="#C5C5D1"/>
<circle cx="28" cy="28" r="1" fill="#C5C5D1"/>
<circle cx="37" cy="28" r="1" fill="#C5C5D1"/>
<circle cx="46" cy="28" r="1" fill="#C5C5D1"/>
<circle cx="55" cy="28" r="1" fill="#C5C5D1"/>
<circle cx="64" cy="28" r="1" fill="#C5C5D1"/>
<circle cx="73" cy="28" r="1" fill="#C5C5D1"/>
<circle cx="82" cy="28" r="1" fill="#C5C5D1"/>
<circle cx="1" cy="37" r="1" fill="#C5C5D1"/>
<circle cx="10" cy="37" r="1" fill="#C5C5D1"/>
<circle cx="28" cy="37" r="1" fill="#C5C5D1"/>
<circle cx="37" cy="37" r="1" fill="#C5C5D1"/>
<circle cx="46" cy="37" r="1" fill="#C5C5D1"/>
<circle cx="55" cy="37" r="1" fill="#C5C5D1"/>
<circle cx="64" cy="37" r="1" fill="#C5C5D1"/>
<circle cx="73" cy="37" r="1" fill="#C5C5D1"/>
<circle cx="82" cy="37" r="1" fill="#C5C5D1"/>
<circle cx="28" cy="46" r="1" fill="#C5C5D1"/>
<circle cx="46" cy="46" r="1" fill="#C5C5D1"/>
<circle cx="82" cy="46" r="1" fill="#C5C5D1"/>
<circle cx="82" cy="19" r="1" fill="#C5C5D1"/>
<circle cx="100" cy="19" r="1" fill="#C5C5D1"/>
<circle cx="109" cy="19" r="1" fill="#C5C5D1"/>
<circle cx="118" cy="19" r="1" fill="#C5C5D1"/>
<circle cx="127" cy="19" r="1" fill="#C5C5D1"/>
<circle cx="136" cy="19" r="1" fill="#C5C5D1"/>
<circle cx="145" cy="19" r="1" fill="#C5C5D1"/>
<circle cx="163" cy="19" r="1" fill="#C5C5D1"/>
<circle cx="82" cy="28" r="1" fill="#C5C5D1"/>
<circle cx="91" cy="28" r="1" fill="#C5C5D1"/>
<circle cx="100" cy="28" r="1" fill="#C5C5D1"/>
<circle cx="109" cy="28" r="1" fill="#C5C5D1"/>
<circle cx="118" cy="28" r="1" fill="#C5C5D1"/>
<circle cx="127" cy="28" r="1" fill="#C5C5D1"/>
<circle cx="136" cy="28" r="1" fill="#C5C5D1"/>
<circle cx="145" cy="28" r="1" fill="#C5C5D1"/>
<circle cx="154" cy="28" r="1" fill="#C5C5D1"/>
<circle cx="163" cy="28" r="1" fill="#C5C5D1"/>
<circle cx="82" cy="37" r="1" fill="#C5C5D1"/>
<circle cx="91" cy="37" r="1" fill="#C5C5D1"/>
<circle cx="109" cy="37" r="1" fill="#C5C5D1"/>
<circle cx="118" cy="37" r="1" fill="#C5C5D1"/>
<circle cx="127" cy="37" r="1" fill="#C5C5D1"/>
<circle cx="136" cy="37" r="1" fill="#C5C5D1"/>
<circle cx="154" cy="37" r="1" fill="#C5C5D1"/>
<circle cx="163" cy="37" r="1" fill="#C5C5D1"/>
<circle cx="82" cy="46" r="1" fill="#C5C5D1"/>
<circle cx="100" cy="46" r="1" fill="#C5C5D1"/>
<circle cx="118" cy="46" r="1" fill="#C5C5D1"/>
<circle cx="154" cy="46" r="1" fill="#C5C5D1"/>
<circle cx="163" cy="46" r="1" fill="#C5C5D1"/>
<circle cx="181" cy="19" r="1" fill="#C5C5D1"/>
<circle cx="190" cy="19" r="1" fill="#C5C5D1"/>
<circle cx="199" cy="19" r="1" fill="#C5C5D1"/>
<circle cx="217" cy="19" r="1" fill="#C5C5D1"/>
<circle cx="226" cy="19" r="1" fill="#C5C5D1"/>
<circle cx="235" cy="19" r="1" fill="#C5C5D1"/>
<circle cx="244" cy="19" r="1" fill="#C5C5D1"/>
<circle cx="163" cy="28" r="1" fill="#C5C5D1"/>
<circle cx="172" cy="28" r="1" fill="#C5C5D1"/>
<circle cx="181" cy="28" r="1" fill="#C5C5D1"/>
<circle cx="190" cy="28" r="1" fill="#C5C5D1"/>
<circle cx="208" cy="28" r="1" fill="#C5C5D1"/>
<circle cx="217" cy="28" r="1" fill="#C5C5D1"/>
<circle cx="226" cy="28" r="1" fill="#C5C5D1"/>
<circle cx="235" cy="28" r="1" fill="#C5C5D1"/>
<circle cx="244" cy="28" r="1" fill="#C5C5D1"/>
<circle cx="172" cy="37" r="1" fill="#C5C5D1"/>
<circle cx="181" cy="37" r="1" fill="#C5C5D1"/>
<circle cx="199" cy="37" r="1" fill="#C5C5D1"/>
<circle cx="208" cy="37" r="1" fill="#C5C5D1"/>
<circle cx="217" cy="37" r="1" fill="#C5C5D1"/>
<circle cx="235" cy="37" r="1" fill="#C5C5D1"/>
<circle cx="244" cy="37" r="1" fill="#C5C5D1"/>
<circle cx="172" cy="46" r="1" fill="#C5C5D1"/>
<circle cx="190" cy="46" r="1" fill="#C5C5D1"/>
<circle cx="208" cy="46" r="1" fill="#C5C5D1"/>
<circle cx="226" cy="46" r="1" fill="#C5C5D1"/>
<circle cx="235" cy="46" r="1" fill="#C5C5D1"/>
<circle cx="244" cy="46" r="1" fill="#C5C5D1"/>
<circle cx="244" cy="19" r="1" fill="#C5C5D1"/>
<circle cx="253" cy="19" r="1" fill="#C5C5D1"/>
<circle cx="262" cy="19" r="1" fill="#C5C5D1"/>
<circle cx="271" cy="19" r="1" fill="#C5C5D1"/>
<circle cx="289" cy="19" r="1" fill="#C5C5D1"/>
<circle cx="298" cy="19" r="1" fill="#C5C5D1"/>
<circle cx="307" cy="19" r="1" fill="#C5C5D1"/>
<circle cx="316" cy="19" r="1" fill="#C5C5D1"/>
<circle cx="325" cy="19" r="1" fill="#C5C5D1"/>
<circle cx="244" cy="28" r="1" fill="#C5C5D1"/>
<circle cx="253" cy="28" r="1" fill="#C5C5D1"/>
<circle cx="262" cy="28" r="1" fill="#C5C5D1"/>
<circle cx="271" cy="28" r="1" fill="#C5C5D1"/>
<circle cx="280" cy="28" r="1" fill="#C5C5D1"/>
<circle cx="289" cy="28" r="1" fill="#C5C5D1"/>
<circle cx="298" cy="28" r="1" fill="#C5C5D1"/>
<circle cx="316" cy="28" r="1" fill="#C5C5D1"/>
<circle cx="325" cy="28" r="1" fill="#C5C5D1"/>
<circle cx="244" cy="37" r="1" fill="#C5C5D1"/>
<circle cx="253" cy="37" r="1" fill="#C5C5D1"/>
<circle cx="262" cy="37" r="1" fill="#C5C5D1"/>
<circle cx="289" cy="37" r="1" fill="#C5C5D1"/>
<circle cx="298" cy="37" r="1" fill="#C5C5D1"/>
<circle cx="307" cy="37" r="1" fill="#C5C5D1"/>
<circle cx="316" cy="37" r="1" fill="#C5C5D1"/>
<circle cx="325" cy="37" r="1" fill="#C5C5D1"/>
<circle cx="244" cy="46" r="1" fill="#C5C5D1"/>
<circle cx="253" cy="46" r="1" fill="#C5C5D1"/>
<circle cx="280" cy="46" r="1" fill="#C5C5D1"/>
<circle cx="289" cy="46" r="1" fill="#C5C5D1"/>
<circle cx="298" cy="46" r="1" fill="#C5C5D1"/>
<circle cx="307" cy="46" r="1" fill="#C5C5D1"/>
<circle cx="316" cy="46" r="1" fill="#C5C5D1"/>
<circle cx="325" cy="46" r="1" fill="#C5C5D1"/>
<circle cx="325" cy="19" r="1" fill="#C5C5D1"/>
<circle cx="334" cy="19" r="1" fill="#C5C5D1"/>
<circle cx="343" cy="19" r="1" fill="#C5C5D1"/>
<circle cx="352" cy="19" r="1" fill="#C5C5D1"/>
<circle cx="361" cy="19" r="1" fill="#C5C5D1"/>
<circle cx="379" cy="19" r="1" fill="#C5C5D1"/>
<circle cx="388" cy="19" r="1" fill="#C5C5D1"/>
<circle cx="397" cy="19" r="1" fill="#C5C5D1"/>
<circle cx="325" cy="28" r="1" fill="#C5C5D1"/>
<circle cx="334" cy="28" r="1" fill="#C5C5D1"/>
<circle cx="343" cy="28" r="1" fill="#C5C5D1"/>
<circle cx="352" cy="28" r="1" fill="#C5C5D1"/>
<circle cx="361" cy="28" r="1" fill="#C5C5D1"/>
<circle cx="379" cy="28" r="1" fill="#C5C5D1"/>
<circle cx="388" cy="28" r="1" fill="#C5C5D1"/>
<circle cx="397" cy="28" r="1" fill="#C5C5D1"/>
<circle cx="73" cy="1" r="1" fill="#C5C5D1"/>
<circle cx="55" cy="10" r="1" fill="#C5C5D1"/>
<circle cx="91" cy="10" r="1" fill="#C5C5D1"/>
<circle cx="100" cy="10" r="1" fill="#C5C5D1"/>
<circle cx="109" cy="10" r="1" fill="#C5C5D1"/>
<circle cx="190" cy="10" r="1" fill="#C5C5D1"/>
<circle cx="46" cy="19" r="1" fill="#C5C5D1"/>
<circle cx="154" cy="19" r="1" fill="#C5C5D1"/>
<circle cx="145" cy="37" r="1" fill="#C5C5D1"/>
<circle cx="163" cy="19" r="1" fill="#C5C5D1"/>
<circle cx="172" cy="19" r="1" fill="#C5C5D1"/>
<circle cx="163" cy="37" r="1" fill="#C5C5D1"/>
<circle cx="280" cy="19" r="1" fill="#C5C5D1"/>
<circle cx="370" cy="19" r="1" fill="#C5C5D1"/>
<circle cx="325" cy="37" r="1" fill="#C5C5D1"/>
<circle cx="334" cy="37" r="1" fill="#C5C5D1"/>
<circle cx="343" cy="37" r="1" fill="#C5C5D1"/>
<circle cx="352" cy="37" r="1" fill="#C5C5D1"/>
<circle cx="361" cy="37" r="1" fill="#C5C5D1"/>
<circle cx="379" cy="37" r="1" fill="#C5C5D1"/>
<circle cx="388" cy="37" r="1" fill="#C5C5D1"/>
<circle cx="397" cy="37" r="1" fill="#C5C5D1"/>
<circle cx="325" cy="46" r="1" fill="#C5C5D1"/>
<circle cx="334" cy="46" r="1" fill="#C5C5D1"/>
<circle cx="343" cy="46" r="1" fill="#C5C5D1"/>
<circle cx="361" cy="46" r="1" fill="#C5C5D1"/>
<circle cx="370" cy="46" r="1" fill="#C5C5D1"/>
<circle cx="388" cy="46" r="1" fill="#C5C5D1"/>
</svg>
