<svg width="24" height="24" viewBox="0 0 24 24" fill="none" xmlns="http://www.w3.org/2000/svg">
<g clip-path="url(#clip0_71_96220)">
<path fill-rule="evenodd" clip-rule="evenodd" d="M19.098 10.6383C15.2304 8.34148 8.85 8.12998 5.1564 9.25078C4.5636 9.42958 3.9372 9.09595 3.7572 8.50195C3.5772 7.90915 3.912 7.28273 4.5048 7.10273C8.7444 5.81513 15.7908 6.06343 20.244 8.70703C20.7768 9.02383 20.952 9.7129 20.6352 10.2457C20.3208 10.7785 19.6296 10.9551 19.098 10.6383ZM18.972 14.0402C18.7008 14.4806 18.1248 14.6184 17.6844 14.3484C14.46 12.366 9.5424 11.7924 5.7276 12.9504C5.232 13.0992 4.71 12.8208 4.56 12.3264C4.4112 11.832 4.6896 11.3098 5.184 11.1598C9.5412 9.83737 14.9592 10.4783 18.6636 12.7547C19.104 13.0247 19.242 13.601 18.972 14.0402ZM17.5032 17.3074C17.2872 17.6602 16.8276 17.7719 16.4748 17.5559C13.6572 15.8339 10.11 15.4452 5.9328 16.3992C5.5308 16.4916 5.1288 16.2393 5.0376 15.8361C4.9452 15.4341 5.196 15.0338 5.6004 14.9414C10.1712 13.8962 14.0916 14.3459 17.2548 16.2791C17.6076 16.4951 17.7192 16.9546 17.5032 17.3074ZM12 0C5.3724 0 0 5.3724 0 12C0 18.6276 5.3724 24 12 24C18.6276 24 24 18.6276 24 12C24 5.3736 18.6276 0 12 0Z" class="fill-light-icon dark:fill-dark-icon"/>
</g>
</svg>
