<svg viewBox="0 0 301 287" fill="none" xmlns="http://www.w3.org/2000/svg">
<g clip-path="url(#clip0_173_39010)">
  <!-- Stars -->
  <g data-atropos-offset="-5">
    <path d="M70.5199 101.21V100.84C69.5545 100.84 68.6286 100.457 67.946 99.7741C67.2634 99.0914 66.8799 98.1656 66.8799 97.2002H66.5199C66.5199 98.1656 66.1364 99.0914 65.4537 99.7741C64.7711 100.457 63.8453 100.84 62.8799 100.84V101.21C63.8453 101.21 64.7711 101.594 65.4537 102.276C66.1364 102.959 66.5199 103.885 66.5199 104.85H66.8799C66.8799 103.885 67.2634 102.959 67.946 102.276C68.6286 101.594 69.5545 101.21 70.5199 101.21Z" fill="#6E61C9"/>
    <path d="M276.54 36.8999V36.5399C275.575 36.5399 274.649 36.1564 273.967 35.4738C273.284 34.7911 272.9 33.8653 272.9 32.8999H272.54C272.54 33.8653 272.157 34.7911 271.474 35.4738C270.792 36.1564 269.866 36.5399 268.9 36.5399V36.8999C269.866 36.8999 270.792 37.2834 271.474 37.966C272.157 38.6487 272.54 39.5745 272.54 40.5399H272.9C272.9 39.5745 273.284 38.6487 273.967 37.966C274.649 37.2834 275.575 36.8999 276.54 36.8999Z" fill="#6E61C9"/>
    <path d="M126.05 4V3.64C125.085 3.64 124.159 3.2565 123.476 2.57387C122.794 1.89124 122.41 0.965388 122.41 0L122.05 0C122.05 0.965388 121.667 1.89124 120.984 2.57387C120.301 3.2565 119.376 3.64 118.41 3.64V4C118.889 4 119.363 4.09448 119.805 4.27803C120.248 4.46158 120.649 4.7306 120.988 5.06966C121.326 5.40873 121.594 5.81118 121.776 6.25396C121.958 6.69674 122.051 7.17115 122.05 7.65H122.41C122.409 7.17115 122.502 6.69674 122.684 6.25396C122.867 5.81118 123.135 5.40873 123.473 5.06966C123.811 4.7306 124.213 4.46158 124.655 4.27803C125.097 4.09448 125.571 4 126.05 4Z" fill="#6E61C9"/>
  </g>
  <!-- UFO and beam -->
  <g data-atropos-offset="0">
    <path d="M163.06 63.2798C175.619 63.2798 185.8 53.0988 185.8 40.5398C185.8 27.9809 175.619 17.7998 163.06 17.7998C150.501 17.7998 140.32 27.9809 140.32 40.5398C140.32 53.0988 150.501 63.2798 163.06 63.2798Z" fill="#FF818A"/>
    <path d="M163.06 64.8799C175.619 64.8799 185.8 54.6989 185.8 42.1399C185.8 29.5809 175.619 19.3999 163.06 19.3999C150.501 19.3999 140.32 29.5809 140.32 42.1399C140.32 54.6989 150.501 64.8799 163.06 64.8799Z" fill="#A72170"/>
    <path d="M163.06 81.6202C205.989 81.6202 240.79 69.5453 240.79 54.6502C240.79 39.7551 205.989 27.6802 163.06 27.6802C120.131 27.6802 85.3301 39.7551 85.3301 54.6502C85.3301 69.5453 120.131 81.6202 163.06 81.6202Z" fill="#A72170"/>
    <path d="M163.06 83.7499C205.989 83.7499 240.79 72.3108 240.79 58.1999C240.79 44.089 205.989 32.6499 163.06 32.6499C120.131 32.6499 85.3301 44.089 85.3301 58.1999C85.3301 72.3108 120.131 83.7499 163.06 83.7499Z" fill="#9573D1"/>
    <path d="M163.06 42.4599C200.88 42.4599 232.38 51.3399 239.34 63.0999C240.259 61.6284 240.761 59.9345 240.79 58.1999C240.79 44.0899 205.99 32.6499 163.06 32.6499C120.13 32.6499 85.3203 44.0899 85.3203 58.1999C85.3501 59.9345 85.8513 61.6284 86.7703 63.0999C93.7303 51.3399 125.23 42.4599 163.06 42.4599Z" fill="#CFA9F4"/>
    <path d="M163.06 37.1199C203.69 37.1199 237.06 47.3699 240.47 60.4299C240.676 59.7042 240.784 58.9542 240.79 58.1999C240.79 44.0899 205.99 32.6499 163.06 32.6499C120.13 32.6499 85.3203 44.0899 85.3203 58.1999C85.3271 58.9542 85.4347 59.7042 85.6403 60.4299C89.0903 47.3699 122.42 37.1199 163.06 37.1199Z" fill="#26163B"/>
    <path d="M163.49 83.36C148.91 83.36 137.92 77.25 137.92 69.16C137.92 61.07 148.91 55 163.49 55C178.07 55 189.06 61.11 189.06 69.21C189.06 77.31 178.07 83.36 163.49 83.36Z" fill="#26163B"/>
    <path d="M183.59 68H163.49H143.39L40.2002 286.76H163.49H286.78L183.59 68Z" fill="url(#paint0_linear_173_39010)"/>
    <path d="M143.39 68L40.2002 286.76H42.8602L146.05 68H143.39Z" fill="url(#paint1_linear_173_39010)"/>
    <path d="M163.49 79.2201C174.68 79.2201 183.75 74.7161 183.75 69.1601C183.75 63.6041 174.68 59.1001 163.49 59.1001C152.301 59.1001 143.23 63.6041 143.23 69.1601C143.23 74.7161 152.301 79.2201 163.49 79.2201Z" fill="#48DA93"/>
    <path d="M163.49 75.85C153.33 75.85 146.59 71.85 146.59 69.16C146.59 66.47 153.33 62.46 163.49 62.46C173.65 62.46 180.38 66.46 180.38 69.16C180.38 71.86 173.65 75.85 163.49 75.85Z" fill="#C7FF9C"/>
  </g>
  <!-- V -->
  <g data-atropos-offset="3">
    <path d="M285 277.97H271.62L265.49 268.38V233.67L270.12 229.03L278.45 237.36L278.09 264.27L294.39 247.96H300.88V261.98L285 277.97Z" fill="#CFA9F4"/>
    <path d="M279.15 277.97H268.16L262.03 271.84V237.12L266.67 232.49L272.56 238.38V269.8L290.94 251.42H294.86V261.31L279.15 277.97Z" fill="#9573D1"/>
    <path d="M292.41 241.15H290.89V242.67H292.41V241.15Z" fill="#BAAFED"/>
    <path d="M257.26 233.61H255.74V235.13H257.26V233.61Z" fill="#BAAFED"/>
  </g>
  <!-- Microphone -->
  <g data-atropos-offset="4">
    <path d="M233.394 148.861C235.277 142.467 231.62 135.756 225.226 133.873C218.831 131.99 212.121 135.647 210.238 142.042L203.536 164.795C201.653 171.19 205.31 177.9 211.705 179.784C218.099 181.667 224.81 178.01 226.693 171.615L233.394 148.861Z" fill="#9573D1"/>
    <path d="M225.22 133.88C224.344 133.622 223.441 133.464 222.53 133.41C225.474 134.413 227.918 136.515 229.351 139.276C230.783 142.037 231.095 145.245 230.22 148.23L223.52 171C222.745 173.616 221.108 175.893 218.875 177.46C216.641 179.027 213.943 179.792 211.22 179.63C211.38 179.63 211.54 179.75 211.7 179.79C213.221 180.241 214.816 180.387 216.394 180.221C217.972 180.054 219.502 179.577 220.895 178.818C222.289 178.059 223.519 177.033 224.515 175.798C225.511 174.562 226.253 173.143 226.7 171.62L233.4 148.87C233.849 147.349 233.994 145.754 233.825 144.176C233.657 142.599 233.18 141.07 232.42 139.678C231.66 138.286 230.633 137.057 229.397 136.062C228.162 135.067 226.742 134.326 225.22 133.88Z" fill="#CFA9F4"/>
    <path d="M209.461 176.368L205.65 189.309L210.428 190.715L214.239 177.775L209.461 176.368Z" fill="#A72170"/>
    <path d="M214.24 177.78L210.43 190.72H208.93L212.74 177.78H214.24Z" fill="#CFA9F4"/>
    <path d="M203.53 192.94L190 205C189.508 205.441 189.211 206.059 189.174 206.719C189.136 207.378 189.362 208.026 189.8 208.52C190.24 209.013 190.857 209.312 191.517 209.351C192.176 209.391 192.825 209.167 193.32 208.73L206.87 196.65C207.363 196.212 207.661 195.596 207.701 194.938C207.74 194.28 207.517 193.634 207.08 193.14C206.862 192.891 206.596 192.688 206.299 192.543C206.001 192.397 205.678 192.313 205.347 192.294C205.017 192.276 204.686 192.323 204.374 192.434C204.062 192.545 203.775 192.717 203.53 192.94Z" fill="#A72170"/>
    <path d="M208.7 195.01L194.73 207.4L193.29 208.74L207.31 194.32L208.7 195.01Z" fill="#CFA9F4"/>
    <path d="M205.5 158.09L203.5 164.79C203.05 166.311 202.905 167.906 203.072 169.484C203.24 171.061 203.716 172.59 204.475 173.983C205.234 175.377 206.26 176.606 207.494 177.603C208.729 178.599 210.148 179.342 211.67 179.79C213.191 180.239 214.786 180.385 216.364 180.217C217.941 180.05 219.47 179.573 220.863 178.814C222.256 178.056 223.486 177.03 224.483 175.795C225.479 174.561 226.222 173.142 226.67 171.62L228.67 164.92L205.5 158.09Z" fill="#A72170"/>
    <path d="M229.379 162.471L206.223 155.651L205.505 158.088L228.662 164.908L229.379 162.471Z" fill="#CFA9F4"/>
    <path d="M225.92 163.11L223.67 170.73C222.84 173.537 221.018 175.946 218.544 177.51C216.069 179.073 213.111 179.685 210.22 179.23C210.701 179.444 211.195 179.628 211.7 179.78C213.221 180.231 214.816 180.377 216.394 180.21C217.972 180.043 219.502 179.567 220.895 178.808C222.289 178.049 223.519 177.023 224.515 175.787C225.511 174.552 226.253 173.133 226.7 171.61L228.94 164L225.92 163.11Z" fill="#CFA9F4"/>
    <path d="M207.38 196.5C209.793 196.5 211.75 194.543 211.75 192.13C211.75 189.716 209.793 187.76 207.38 187.76C204.966 187.76 203.01 189.716 203.01 192.13C203.01 194.543 204.966 196.5 207.38 196.5Z" fill="#A72170"/>
    <path d="M207.34 193.99C208.372 193.99 209.21 193.153 209.21 192.12C209.21 191.087 208.372 190.25 207.34 190.25C206.307 190.25 205.47 191.087 205.47 192.12C205.47 193.153 206.307 193.99 207.34 193.99Z" fill="#A72170"/>
    <path d="M210.186 142.184L218.445 144.616C218.714 144.695 218.942 144.879 219.076 145.126C219.211 145.372 219.242 145.663 219.162 145.932C219.083 146.202 218.899 146.429 218.653 146.564C218.406 146.698 218.116 146.729 217.846 146.65L209.587 144.217L210.183 142.193L210.186 142.184Z" fill="#24173E"/>
    <path d="M209.019 146.161L217.278 148.593C217.548 148.672 217.775 148.856 217.909 149.103C218.044 149.349 218.075 149.64 217.995 149.909C217.916 150.179 217.732 150.406 217.486 150.541C217.239 150.675 216.949 150.706 216.679 150.627L208.42 148.194L209.016 146.17L209.019 146.161Z" fill="#24173E"/>
    <path d="M207.84 150.155L216.147 152.601C216.417 152.681 216.644 152.864 216.778 153.111C216.913 153.358 216.944 153.648 216.864 153.918C216.785 154.187 216.602 154.414 216.355 154.549C216.108 154.683 215.818 154.714 215.548 154.635L207.289 152.203L207.885 150.179L207.84 150.155Z" fill="#24173E"/>
    <path d="M225.081 146.568L233.341 149L232.744 151.024L224.485 148.592C224.215 148.512 223.988 148.329 223.854 148.082C223.719 147.835 223.688 147.545 223.768 147.275C223.849 147.008 224.033 146.784 224.279 146.651C224.525 146.519 224.813 146.489 225.081 146.568Z" fill="#24173E"/>
    <path d="M223.914 150.555L232.174 152.987L231.577 155.011L223.318 152.579C223.049 152.499 222.821 152.316 222.687 152.069C222.552 151.822 222.521 151.532 222.601 151.263C222.682 150.995 222.866 150.771 223.112 150.638C223.358 150.506 223.646 150.476 223.914 150.555Z" fill="#24173E"/>
    <path d="M222.745 154.542L231.005 156.974L230.409 158.998L222.149 156.566C221.88 156.486 221.652 156.303 221.518 156.056C221.383 155.809 221.352 155.519 221.432 155.249C221.513 154.982 221.697 154.758 221.943 154.625C222.189 154.493 222.477 154.463 222.745 154.542Z" fill="#24173E"/>
    <path d="M233.349 149.006L230.26 148.096L229.664 150.12L232.753 151.03L233.349 149.006Z" fill="#9573D1"/>
    <path d="M232.182 152.983L229.093 152.074L228.497 154.098L231.586 155.007L232.182 152.983Z" fill="#9573D1"/>
    <path d="M231.003 156.98L227.914 156.071L227.318 158.095L230.407 159.005L231.003 156.98Z" fill="#9573D1"/>
  </g>
  <!-- Soundboard -->
  <g data-atropos-offset="5">
    <path d="M162.14 168.278L111.075 156.084C107.326 155.189 103.56 157.502 102.665 161.252L90.4715 212.316C89.5761 216.066 91.8899 219.831 95.6394 220.727L146.704 232.92C150.453 233.816 154.219 231.502 155.114 227.752L167.308 176.688C168.203 172.938 165.889 169.173 162.14 168.278Z" fill="#26163B"/>
    <path d="M154.596 166.481L96.5092 152.611C92.5448 151.664 88.5636 154.111 87.617 158.075L75.6093 208.361C74.6626 212.326 77.109 216.307 81.0734 217.254L139.16 231.124C143.125 232.071 147.106 229.624 148.053 225.66L160.06 175.374C161.007 171.409 158.561 167.428 154.596 166.481Z" fill="#CFA9F4"/>
    <path d="M154.57 166.48L96.4996 152.61C95.5561 152.384 94.5771 152.346 93.6189 152.499C92.6607 152.651 91.7419 152.991 90.9153 153.499C90.0886 154.007 89.3703 154.673 88.8013 155.459C88.2324 156.245 87.824 157.136 87.5996 158.08L87.1396 160C87.364 159.056 87.7724 158.165 88.3413 157.379C88.9103 156.593 89.6286 155.927 90.4553 155.419C91.2819 154.911 92.2007 154.571 93.1589 154.419C94.1171 154.266 95.0961 154.304 96.0396 154.53L154.12 168.4C156.023 168.858 157.667 170.052 158.69 171.721C159.714 173.389 160.034 175.396 159.58 177.3L160.04 175.38C160.266 174.436 160.304 173.457 160.151 172.499C159.998 171.541 159.658 170.622 159.15 169.796C158.642 168.969 157.976 168.251 157.19 167.682C156.404 167.113 155.514 166.704 154.57 166.48Z" fill="#F4D4FC"/>
    <path d="M95.5317 175.593C95.7011 174.884 95.2635 174.172 94.5544 174.002C93.8453 173.833 93.1332 174.271 92.9639 174.98L84.7049 209.567C84.5355 210.276 84.9731 210.988 85.6822 211.158C86.3913 211.327 87.1033 210.89 87.2727 210.18L95.5317 175.593Z" fill="#9573D1"/>
    <path d="M87.8353 196.037L86.7832 200.443C86.5087 201.593 87.218 202.747 88.3676 203.022L88.6983 203.101C89.8479 203.375 91.0023 202.666 91.2768 201.516L92.3289 197.11C92.6034 195.961 91.8941 194.806 90.7445 194.532L90.4138 194.453C89.2642 194.178 88.1098 194.888 87.8353 196.037Z" fill="#A72170"/>
    <path d="M86.6312 195.763L85.5791 200.169C85.3046 201.319 86.0139 202.473 87.1635 202.748C88.3131 203.022 89.4675 202.313 89.742 201.163L90.7941 196.757C91.0686 195.607 90.3593 194.453 89.2097 194.178C88.0601 193.904 86.9057 194.613 86.6312 195.763Z" fill="#E06870"/>
    <path d="M109.257 178.86C109.427 178.151 108.989 177.439 108.28 177.269C107.571 177.1 106.859 177.538 106.69 178.247L98.4304 212.834C98.2611 213.543 98.6987 214.256 99.4078 214.425C100.117 214.594 100.829 214.157 100.998 213.448L109.257 178.86Z" fill="#9573D1"/>
    <path d="M104.485 185.726L103.433 190.132C103.158 191.281 103.867 192.436 105.017 192.71L105.348 192.789C106.497 193.064 107.652 192.354 107.926 191.205L108.978 186.799C109.253 185.649 108.543 184.495 107.394 184.22L107.063 184.141C105.914 183.867 104.759 184.576 104.485 185.726Z" fill="#A72170"/>
    <path d="M103.283 185.431L102.23 189.837C101.956 190.987 102.665 192.141 103.815 192.416C104.964 192.69 106.119 191.981 106.393 190.832L107.446 186.425C107.72 185.276 107.011 184.121 105.861 183.847C104.711 183.572 103.557 184.282 103.283 185.431Z" fill="#E06870"/>
    <path d="M122.674 182.069C122.844 181.36 122.406 180.648 121.697 180.479C120.988 180.31 120.276 180.747 120.107 181.456L111.847 216.044C111.678 216.753 112.116 217.465 112.825 217.634C113.534 217.804 114.246 217.366 114.415 216.657L122.674 182.069Z" fill="#9573D1"/>
    <path d="M115.035 202.541L113.982 206.947C113.708 208.096 114.417 209.251 115.567 209.525L115.898 209.604C117.047 209.879 118.202 209.169 118.476 208.02L119.528 203.614C119.803 202.464 119.093 201.31 117.944 201.035L117.613 200.956C116.463 200.682 115.309 201.391 115.035 202.541Z" fill="#A72170"/>
    <path d="M113.83 202.256L112.778 206.662C112.504 207.812 113.213 208.966 114.363 209.241C115.512 209.515 116.667 208.806 116.941 207.656L117.993 203.25C118.268 202.101 117.558 200.946 116.409 200.672C115.259 200.397 114.105 201.106 113.83 202.256Z" fill="#E06870"/>
    <path d="M97.6205 170.37C100.321 170.37 102.51 168.181 102.51 165.48C102.51 162.779 100.321 160.59 97.6205 160.59C94.9198 160.59 92.7305 162.779 92.7305 165.48C92.7305 168.181 94.9198 170.37 97.6205 170.37Z" fill="#26163B"/>
    <path d="M95.7299 169.92C98.4305 169.92 100.62 167.731 100.62 165.03C100.62 162.329 98.4305 160.14 95.7299 160.14C93.0292 160.14 90.8398 162.329 90.8398 165.03C90.8398 167.731 93.0292 169.92 95.7299 169.92Z" fill="#A72170"/>
    <path d="M95.9099 167.35C97.1691 167.35 98.1899 166.329 98.1899 165.07C98.1899 163.811 97.1691 162.79 95.9099 162.79C94.6507 162.79 93.6299 163.811 93.6299 165.07C93.6299 166.329 94.6507 167.35 95.9099 167.35Z" fill="#26163B"/>
    <path d="M94.8796 167.11C96.1388 167.11 97.1596 166.089 97.1596 164.83C97.1596 163.571 96.1388 162.55 94.8796 162.55C93.6204 162.55 92.5996 163.571 92.5996 164.83C92.5996 166.089 93.6204 167.11 94.8796 167.11Z" fill="#E06870"/>
    <path d="M110.88 173.54C113.581 173.54 115.77 171.35 115.77 168.65C115.77 165.949 113.581 163.76 110.88 163.76C108.18 163.76 105.99 165.949 105.99 168.65C105.99 171.35 108.18 173.54 110.88 173.54Z" fill="#26163B"/>
    <path d="M108.98 173.09C111.681 173.09 113.87 170.901 113.87 168.2C113.87 165.499 111.681 163.31 108.98 163.31C106.279 163.31 104.09 165.499 104.09 168.2C104.09 170.901 106.279 173.09 108.98 173.09Z" fill="#A72170"/>
    <path d="M109.16 170.52C110.419 170.52 111.44 169.499 111.44 168.24C111.44 166.981 110.419 165.96 109.16 165.96C107.901 165.96 106.88 166.981 106.88 168.24C106.88 169.499 107.901 170.52 109.16 170.52Z" fill="#26163B"/>
    <path d="M108.14 170.28C109.4 170.28 110.42 169.259 110.42 168C110.42 166.741 109.4 165.72 108.14 165.72C106.881 165.72 105.86 166.741 105.86 168C105.86 169.259 106.881 170.28 108.14 170.28Z" fill="#E06870"/>
    <path d="M124.13 176.7C126.831 176.7 129.02 174.511 129.02 171.81C129.02 169.109 126.831 166.92 124.13 166.92C121.43 166.92 119.24 169.109 119.24 171.81C119.24 174.511 121.43 176.7 124.13 176.7Z" fill="#26163B"/>
    <path d="M122.23 176.25C124.931 176.25 127.12 174.061 127.12 171.36C127.12 168.66 124.931 166.47 122.23 166.47C119.529 166.47 117.34 168.66 117.34 171.36C117.34 174.061 119.529 176.25 122.23 176.25Z" fill="#A72170"/>
    <path d="M122.41 173.69C123.669 173.69 124.69 172.669 124.69 171.41C124.69 170.151 123.669 169.13 122.41 169.13C121.151 169.13 120.13 170.151 120.13 171.41C120.13 172.669 121.151 173.69 122.41 173.69Z" fill="#26163B"/>
    <path d="M121.39 173.44C122.65 173.44 123.67 172.419 123.67 171.16C123.67 169.901 122.65 168.88 121.39 168.88C120.131 168.88 119.11 169.901 119.11 171.16C119.11 172.419 120.131 173.44 121.39 173.44Z" fill="#E06870"/>
    <path d="M152.791 171.823L137.997 168.291C136.826 168.011 135.65 168.734 135.371 169.905L123.484 219.685C123.204 220.856 123.927 222.032 125.098 222.312L139.892 225.844C141.063 226.124 142.239 225.401 142.519 224.23L154.405 174.45C154.685 173.279 153.962 172.103 152.791 171.823Z" fill="#9573D1"/>
    <path d="M153.076 180.028L134.041 175.483L133.858 176.251L152.892 180.797L153.076 180.028Z" fill="#CFA9F4"/>
    <path d="M150.811 189.485L131.776 184.939L131.593 185.708L150.628 190.253L150.811 189.485Z" fill="#CFA9F4"/>
    <path d="M148.555 198.951L129.521 194.406L129.337 195.174L148.372 199.719L148.555 198.951Z" fill="#CFA9F4"/>
    <path d="M146.29 208.407L127.255 203.862L127.071 204.63L146.106 209.175L146.29 208.407Z" fill="#CFA9F4"/>
    <path d="M144.035 217.864L125 213.318L124.817 214.087L143.851 218.632L144.035 217.864Z" fill="#CFA9F4"/>
  </g>
  <!-- Play button -->
  <g data-atropos-offset="3">
    <path d="M158.34 97.0898H125.17C122.734 97.0898 120.76 99.0643 120.76 101.5V134.67C120.76 137.105 122.734 139.08 125.17 139.08H158.34C160.775 139.08 162.75 137.105 162.75 134.67V101.5C162.75 99.0643 160.775 97.0898 158.34 97.0898Z" fill="#26163B"/>
    <path d="M156.05 97.0898H122.88C120.444 97.0898 118.47 99.0643 118.47 101.5V134.67C118.47 137.105 120.444 139.08 122.88 139.08H156.05C158.485 139.08 160.46 137.105 160.46 134.67V101.5C160.46 99.0643 158.485 97.0898 156.05 97.0898Z" fill="#9573D1"/>
    <path d="M156.05 97.0898H122.87C121.702 97.0925 120.583 97.5583 119.758 98.385C118.933 99.2118 118.47 100.332 118.47 101.5V103.5C118.47 102.922 118.584 102.35 118.805 101.816C119.026 101.282 119.35 100.797 119.758 100.389C120.167 99.98 120.652 99.6559 121.186 99.4348C121.72 99.2137 122.292 99.0998 122.87 99.0998H156.05C156.628 99.0985 157.202 99.2114 157.737 99.4319C158.272 99.6524 158.758 99.9763 159.167 100.385C159.577 100.794 159.902 101.279 160.124 101.814C160.346 102.348 160.46 102.921 160.46 103.5V101.5C160.46 100.33 159.995 99.2085 159.168 98.3815C158.341 97.5545 157.219 97.0898 156.05 97.0898Z" fill="#F4D4FC"/>
    <path d="M139.46 126.92C144.337 126.92 148.29 122.966 148.29 118.09C148.29 113.213 144.337 109.26 139.46 109.26C134.583 109.26 130.63 113.213 130.63 118.09C130.63 122.966 134.583 126.92 139.46 126.92Z" fill="#F4D4FC"/>
    <path d="M139 116L141.81 117.86C141.847 117.886 141.878 117.92 141.899 117.96C141.92 118 141.931 118.045 141.931 118.09C141.931 118.135 141.92 118.18 141.899 118.22C141.878 118.26 141.847 118.294 141.81 118.32L139 120.18C138.958 120.207 138.91 120.222 138.861 120.224C138.811 120.225 138.762 120.214 138.718 120.191C138.674 120.167 138.638 120.133 138.612 120.09C138.586 120.048 138.571 120 138.57 119.95V116.23C138.571 116.181 138.586 116.132 138.612 116.09C138.638 116.048 138.674 116.013 138.718 115.99C138.762 115.966 138.811 115.955 138.861 115.957C138.91 115.959 138.958 115.974 139 116Z" fill="#32146D"/>
  </g>
  <!-- Mountain shape -->
  <g data-atropos-offset="2">
    <path d="M14.97 238.07H81.92L97.72 278.87H0L14.97 238.07Z" fill="#F4D4FC"/>
    <path d="M31.5999 238.07L16.6299 278.87H93.3499L77.5499 238.07H31.5999Z" fill="#CFA9F4"/>
    <path d="M14.97 238.07L0 278.87H54.89L39.09 238.07H14.97Z" fill="#9573D1"/>
    <path d="M45.8098 197.28H59.4498L75.2498 238.07H30.8398L45.8098 197.28Z" fill="#F4D4FC"/>
    <path d="M38.3304 197.28L23.3604 238.07H70.8803L55.0804 197.28H38.3304Z" fill="#CFA9F4"/>
    <path d="M37.4505 197.28L22.4805 238.07H56.2705L40.4705 197.28H37.4505Z" fill="#9573D1"/>
  </g>
</g>
<defs>
<linearGradient id="paint0_linear_173_39010" x1="163.47" y1="269.65" x2="163.28" y2="59.35" gradientUnits="userSpaceOnUse">
<stop stop-color="#50B071" stop-opacity="0"/>
<stop offset="0.49" stop-color="#50B071" stop-opacity="0.5"/>
<stop offset="1" stop-color="#50B071"/>
</linearGradient>
<linearGradient id="paint1_linear_173_39010" x1="93.2102" y1="269.51" x2="93.0202" y2="59.43" gradientUnits="userSpaceOnUse">
<stop stop-color="#C7FF9C" stop-opacity="0"/>
<stop offset="0.57" stop-color="#C7FF9C" stop-opacity="0.5"/>
<stop offset="1" stop-color="#C7FF9C"/>
</linearGradient>
<clipPath id="clip0_173_39010">
<rect width="300.88" height="286.76" fill="white"/>
</clipPath>
</defs>
</svg>
