<svg width="29" height="20" viewBox="0 0 29 20" fill="none" xmlns="http://www.w3.org/2000/svg">
<path d="M27.5051 3.07103C27.1814 1.86158 26.2309 0.911134 25.0214 0.587381C22.8316 1.75825e-07 14.0462 0 14.0462 0C14.0462 0 5.26098 1.75825e-07 3.07102 0.587381C1.86158 0.911134 0.911134 1.86158 0.587381 3.07103C1.75825e-07 5.26098 0 9.83284 0 9.83284C0 9.83284 1.75825e-07 14.4047 0.587381 16.5947C0.911134 17.8041 1.86158 18.7546 3.07102 19.0783C5.26098 19.6657 14.0462 19.6657 14.0462 19.6657C14.0462 19.6657 22.8316 19.6657 25.0214 19.0783C26.2309 18.7546 27.1814 17.8041 27.5051 16.5947C28.0925 14.4047 28.0925 9.83284 28.0925 9.83284C28.0925 9.83284 28.0902 5.26098 27.5051 3.07103Z" class="fill-light-icon dark:fill-dark-icon"/>
<path d="M11.2334 14.0469L18.5317 9.83356L11.2334 5.62012V14.0469Z" class="fill-light-card dark:fill-dark-card"/>
</svg>
